<?xml version="1.0" encoding="utf-8"?>
<!-- Generator: Adobe Illustrator 27.2.0, SVG Export Plug-In . SVG Version: 6.00 Build 0)  -->
<svg version="1.1" id="Layer_2_00000009588155207458103640000001522813907638198199_"
	 xmlns="http://www.w3.org/2000/svg" xmlns:xlink="http://www.w3.org/1999/xlink" x="0px" y="0px" viewBox="0 0 298.9 395"
	 style="enable-background:new 0 0 298.9 395;" xml:space="preserve">
<style type="text/css">
	.st0{fill:#6F0B20;}
</style>
<g id="Layer_1-2">
	<g>
		<path class="st0" d="M288.4,132c3.2-5.1,6.4-10.1,8.3-15.8c1.6-5,2.3-10.3,2.2-15.6c-0.2-7.9-2.2-15.7-5.5-22.8
			c-0.6-1.4-1.3-3.2-2.4-4.3c-0.5-0.5-1.3-0.5-1.8,0c-7.4,6.7-16.4,11.5-25.1,16.3c-4.5,2.5-9.1,4.9-13.6,7.2
			c-1.5,0.8-3,1.5-4.5,2.3c-0.5,0.2-1.4,0.5-1.8,0.9c0.4-0.4,0.9-0.1,0-0.2c-0.7-0.1-1.5,0-2.2,0H180l1.3,1.3V55.6
			c0-0.5,0.3-1.8,0-2.3c0.3,0.5-0.4,0.9,0,0.4c0.2-0.2,0.3-0.6,0.5-0.9c3.5-6.7,7.1-13.4,10.8-20c4.6-8.1,9.3-16.4,15.7-23.2
			c0.5-0.5,0.5-1.3,0-1.8c-0.9-0.8-2.3-1.3-3.4-1.9c-2.9-1.4-5.9-2.5-8.9-3.4c-9.2-2.8-19.2-3.4-28.6-1c-6.9,1.7-12.6,5.2-18.6,8.8
			h1.3C144.9,7.2,139.9,4,134,2.2c-5.1-1.6-10.5-2.3-15.8-2.2c-8,0.2-15.9,2.1-23.2,5.4c-1.4,0.6-3.2,1.3-4.4,2.3
			c-0.5,0.5-0.5,1.3,0,1.8c5.6,6,9.8,13,13.9,20c4.1,7.1,8.1,14.5,12,21.8c0.4,0.7,0.7,1.5,1.1,2.2c0.4,0.5-0.3,0.2,0-0.3
			c-0.1,0.2,0,0.6,0,0.8v47.2l1.3-1.3H67.5c-4.2,0-8.5-0.2-12.7,0c-0.9,0.1-0.4-0.2,0,0.2c-0.1-0.1-0.4-0.2-0.6-0.3
			c-1.1-0.6-2.2-1.1-3.3-1.7c-4.1-2.1-8.3-4.2-12.4-6.4c-10-5.3-20.4-10.7-28.8-18.3c-0.5-0.5-1.4-0.5-1.8,0
			c-0.8,0.9-1.4,2.2-1.9,3.3c-1.4,2.8-2.5,5.8-3.5,8.8c-2.8,9.1-3.4,18.9-1,28.1c1.8,6.8,5.3,12.4,9,18.3v-1.3
			c-3.2,5.1-6.4,10.1-8.3,15.8c-1.6,5-2.3,10.3-2.2,15.6c0.2,7.9,2.2,15.7,5.5,22.8c0.7,1.4,1.3,3.2,2.4,4.3c0.5,0.5,1.3,0.5,1.8,0
			c7.4-6.7,16.4-11.5,25.1-16.3c4.5-2.5,9.1-4.9,13.6-7.2c1.5-0.8,3-1.5,4.5-2.3c0.5-0.2,1.4-0.5,1.8-0.9c-0.4,0.4-0.9,0.1,0,0.2
			c0.7,0.1,1.5,0,2.2,0h61.8l-1.3-1.3v174.8c0,1.6-0.2,3.4,0,5c0.1,0.8-0.1,0.1,0.2-0.1c-0.2,0.1-0.3,0.6-0.4,0.8
			c-1.7,3.3-3.5,6.7-5.3,10c-5.4,10-10.9,20.3-17.8,29.4c-1.1,1.5-2.4,2.7-3.6,4.1c-0.5,0.5-0.5,1.3,0,1.8c0.9,0.8,2.3,1.4,3.4,1.9
			c2.9,1.4,5.9,2.5,8.9,3.4c9.2,2.8,19.2,3.4,28.6,1c6.9-1.7,12.6-5.2,18.6-8.8h-1.3c5.2,3.1,10.2,6.3,16.1,8.1
			c5.1,1.6,10.5,2.3,15.8,2.1c8-0.2,15.9-2.1,23.2-5.4c1.4-0.6,3.2-1.3,4.4-2.3c0.5-0.5,0.5-1.3,0-1.8c-7.2-7.7-12.3-17.1-17.4-26.2
			c-2.5-4.5-5-9-7.4-13.6c-0.7-1.3-1.4-2.5-2-3.9c-0.1-0.2-0.2-0.5-0.4-0.7c0.2,0.2,0.1,0.9,0.2,0.1c0.3-4.2,0-8.7,0-12.9V166.1
			c0-1.3,0.2-2.8,0-4.1v-0.5l-1.3,1.3h51.4c4.2,0,8.5,0.2,12.7,0c0.9-0.1,0.4,0.2,0-0.2c0.1,0.1,0.4,0.2,0.6,0.3
			c1.1,0.6,2.2,1.1,3.3,1.7c4.1,2.1,8.3,4.2,12.4,6.4c10,5.4,20.4,10.7,28.8,18.3c0.5,0.5,1.4,0.5,1.8,0c0.9-0.9,1.4-2.2,1.9-3.3
			c1.4-2.8,2.5-5.8,3.5-8.8c2.8-9.1,3.4-18.9,1-28.1c-1.8-6.8-5.3-12.4-9-18.3c-0.9-1.4-3.1-0.1-2.2,1.3c3.1,4.9,6.2,9.6,8,15.2
			c1.5,4.8,2.2,9.8,2.1,14.9c-0.2,7.4-2,14.9-5.2,21.6c-0.4,0.9-0.9,1.9-1.4,2.8c-0.1,0.2-0.3,0.5-0.4,0.8c-0.2,0.4-0.1,0.1,0,0.1
			h1.8c-7.5-6.8-16.5-11.6-25.3-16.5c-4.6-2.5-9.2-4.9-13.9-7.3c-2.1-1.1-4.2-2.5-6.5-3.3c-0.9-0.3-1.9-0.2-2.8-0.2h-62.5
			c-0.7,0-1.3,0.6-1.3,1.3v176c0,2.1-0.3,4,0.7,5.8c1.8,3.4,3.6,6.8,5.4,10.2c5.5,10.1,11,20.5,18,29.6c1.1,1.5,2.4,2.8,3.6,4.1
			v-1.8c0,0,0.4-0.1,0,0c-0.2,0.1-0.4,0.3-0.6,0.4c-0.7,0.4-1.5,0.8-2.2,1.1c-2.7,1.3-5.5,2.3-8.3,3.2c-8.9,2.6-18.5,3.3-27.5,0.9
			c-6.5-1.7-12-5.1-17.7-8.5c-0.4-0.2-0.9-0.2-1.3,0c-5,3-9.8,6.1-15.5,7.9c-4.9,1.5-10,2.2-15.1,2.1c-7.6-0.2-15.2-2-22-5.1
			c-1-0.4-1.9-0.9-2.8-1.4c-0.2-0.1-0.5-0.3-0.8-0.4c-0.4-0.1-0.2-0.1-0.1,0v1.8c7.2-7.7,12.4-17.2,17.6-26.3
			c2.5-4.5,5-9.1,7.4-13.7c0.9-1.7,2.5-3.7,2.7-5.6c0.2-1.4,0-3,0-4.4V197.5c0-11.8,0.3-23.7,0-35.5v-0.5c0-0.7-0.6-1.3-1.3-1.3
			H66.5c-4,0-8.1-0.3-12,0c-1.7,0.1-3.5,1.4-4.9,2.2c-4.2,2.1-8.5,4.4-12.6,6.6c-10,5.4-20.5,10.8-29,18.5h1.8c0,0,0.1,0.4,0,0
			c-0.1-0.2-0.3-0.4-0.4-0.6c-0.4-0.7-0.8-1.5-1.2-2.2c-1.3-2.6-2.4-5.4-3.2-8.2c-2.7-8.8-3.3-18.2-0.9-27.1
			c1.7-6.4,5.2-11.8,8.6-17.4c0.2-0.4,0.2-0.9,0-1.3c-3.1-4.9-6.2-9.7-8-15.2c-1.5-4.8-2.2-9.8-2.1-14.9c0.2-7.4,2-14.9,5.2-21.7
			c0.4-0.9,0.9-1.9,1.4-2.8c0.1-0.2,0.3-0.5,0.4-0.8c0.2-0.4,0.1-0.2,0.1-0.1H8c7.5,6.8,16.5,11.6,25.3,16.5
			c4.6,2.5,9.2,4.9,13.9,7.3c2.1,1.1,4.2,2.5,6.5,3.3c0.9,0.3,1.9,0.2,2.8,0.2h62.5c0.7,0,1.3-0.6,1.3-1.3V55.2
			c0-1.5-0.1-2.3-0.8-3.6c-3.6-6.9-7.2-13.7-11.1-20.4C103.7,23,99,14.7,92.5,7.8v1.8c-0.4,0.1,0,0,0,0c0.2-0.1,0.4-0.2,0.6-0.4
			c0.7-0.4,1.5-0.8,2.2-1.1c2.7-1.3,5.5-2.3,8.3-3.2c8.9-2.7,18.5-3.3,27.5-0.9c6.5,1.7,12,5.1,17.7,8.5c0.4,0.2,0.9,0.2,1.3,0
			c5-3,9.8-6.1,15.5-7.9c4.9-1.5,10-2.2,15.1-2.1c7.6,0.2,15.1,2,22,5.1c1,0.4,1.9,0.9,2.9,1.4c0.2,0.1,0.5,0.3,0.8,0.4
			c0.4,0.1,0.2,0.1,0.1,0.1V7.7c-5.6,6-9.9,13.1-14.1,20.2c-4.1,7.1-8.3,14.7-12.2,22.2c-0.6,1.2-1.4,2.2-1.5,3.5
			c-0.2,3.2,0,6.5,0,9.7v37.9c0,0.7,0.6,1.3,1.3,1.3h52.3c4,0,8.1,0.3,12,0c1.7-0.1,3.4-1.4,4.9-2.2c4.2-2.1,8.5-4.4,12.6-6.6
			c10-5.4,20.5-10.8,29-18.5h-1.8c-0.1-0.4,0,0,0,0c0.1,0.2,0.3,0.4,0.4,0.6c0.4,0.7,0.8,1.5,1.2,2.2c1.3,2.7,2.4,5.4,3.2,8.2
			c2.7,8.8,3.3,18.2,0.9,27.1c-1.7,6.4-5.1,11.8-8.6,17.4C285.3,132.1,287.6,133.4,288.4,132L288.4,132z"/>
		<path class="st0" d="M179.5,387.4c-6.4,0-12.6-1.4-18.2-4.2c-3.9-1.9-7.5-4.4-11.2-6.6c-0.4-0.2-0.9-0.2-1.3,0
			c-6.9,4.1-13.4,8.5-21.4,10.1c-9.2,1.8-18.7,0.3-27.3-3.2l0.8,1.9c8-10.8,14.3-22.8,20.6-34.6c0.9-1.7,1.8-3.5,2.7-5.2
			c0.4-0.8,1-1.7,1.2-2.6c0.1-0.7,0-1.5,0-2.2V186.5c0-9.9,0.3-19.8,0-29.6v-0.4c0-0.7-0.6-1.3-1.3-1.3h-66c-1.6,0-3.4-0.2-5,0
			c-0.9,0.1-1.7,0.6-2.5,1c-1.5,0.8-3.1,1.5-4.6,2.3c-12.3,6.3-24.9,12.7-36.1,20.7l1.9,0.8c-3-7.3-4.6-15.3-3.8-23.2
			c0.5-5.4,2.2-10.6,4.9-15.3c1.8-3.2,3.9-6.3,5.9-9.4c0.2-0.4,0.2-0.9,0-1.3c-1.9-3.1-3.9-6-5.7-9.1c-2.8-4.8-4.6-10.1-5.1-15.6
			c-0.8-7.9,0.7-15.9,3.8-23.2l-1.9,0.8c10.3,7.4,21.8,13.3,33,19.2c3,1.6,6.1,3.5,9.3,4.7c1.2,0.5,2.8,0.2,4,0.2H124
			c0.7,0,1.3-0.6,1.3-1.3v-53c0-1.5-0.4-2.3-1.1-3.7c-1.6-3-3.1-6-4.7-9c-5.7-10.6-11.5-21.3-18.7-31l-0.8,1.9
			c8.6-3.4,18.1-5,27.3-3.2c8.1,1.6,14.5,6,21.4,10.1c0.4,0.2,0.9,0.2,1.3,0c6.9-4.1,13.4-8.5,21.4-10.1c9.2-1.8,18.7-0.2,27.3,3.2
			L198,9.7c-6.5,8.7-11.8,18.3-16.9,27.8c-1.9,3.5-3.8,7.1-5.6,10.6c-0.7,1.3-1.8,2.9-1.9,4.4c-0.4,13,0,26.2,0,39.2v14.7
			c0,0.7,0.6,1.3,1.3,1.3h66c1.6,0,3.4,0.2,5,0c0.9-0.1,1.7-0.6,2.5-1c1.5-0.8,3.1-1.5,4.6-2.3c12.3-6.3,24.9-12.7,36.1-20.7
			l-1.9-0.8c3,7.3,4.6,15.3,3.8,23.2c-0.5,5.4-2.2,10.6-4.9,15.3c-1.8,3.2-3.9,6.3-5.9,9.4c-0.2,0.4-0.2,0.9,0,1.3
			c1.9,3,3.9,6,5.7,9.1c2.8,4.8,4.6,10.1,5.1,15.6c0.8,7.9-0.7,15.9-3.8,23.2l1.9-0.8c-10.3-7.4-21.8-13.4-33.1-19.2
			c-3-1.6-6.1-3.5-9.3-4.7c-1.2-0.5-2.8-0.2-4-0.2h-67.8c-0.7,0-1.3,0.6-1.3,1.3v185.8c0,1.3,0.6,2.3,1.2,3.4
			c5.5,10.8,11.4,21.5,17.9,31.8c1.7,2.7,3.5,5.4,5.4,7.9l0.8-1.9C192.6,386,186.1,387.4,179.5,387.4c-1.7,0.1-1.7,2.7-0.1,2.6
			c6.9,0,13.6-1.5,20-4c0.7-0.3,1.3-1.1,0.8-1.9c-8-10.8-14.4-22.8-20.6-34.6c-0.9-1.7-1.8-3.5-2.7-5.2c-0.3-0.5-0.5-1.1-0.8-1.6
			c-0.4-0.6-0.1,0.5,0,0.2c0.1-0.8,0-1.7,0-2.5V160.2c0-1.1,0.2-2.3,0-3.4v-0.4l-1.3,1.3h65.6c1.8,0,3.6,0.1,5.3,0
			c0.6,0-0.4-0.3-0.2-0.1c0.4,0.3,1.1,0.5,1.6,0.8c1.5,0.7,3,1.5,4.5,2.3c12.3,6.3,24.9,12.7,36.1,20.7c0.8,0.5,1.6-0.1,1.9-0.8
			c3.2-7.7,4.7-16.2,3.8-24.4c-0.6-5.3-2.2-10.4-4.7-15.1c-1.9-3.6-4.3-6.9-6.4-10.4v1.3c2.1-3.4,4.5-6.8,6.4-10.4
			c2.5-4.7,4.1-9.8,4.7-15.1c1-8.3-0.6-16.8-3.8-24.5c-0.3-0.7-1.2-1.3-1.9-0.8c-10.2,7.3-21.5,13.2-32.7,19c-2,1-4,2-6,3
			c-1.1,0.5-2.5,1-3.4,1.7c-0.6,0.5,0.7,0,0.1,0h-70.9l1.3,1.3V53.6c0-0.5,0.1-1,0-1.4v-0.1c0,0.9-0.1,0.4,0.2-0.1
			c0.2-0.4,0.4-0.8,0.6-1.2c1.6-3,3.1-6,4.8-9c5.6-10.5,11.4-21.2,18.6-30.8c0.5-0.7-0.1-1.6-0.8-1.9c-8.8-3.5-18.6-5-28-3.3
			c-8.6,1.5-15.4,6.1-22.7,10.5h1.3c-7.3-4.4-14.1-8.9-22.7-10.5c-9.4-1.7-19.2-0.2-28,3.3c-0.7,0.3-1.3,1.1-0.8,1.9
			c6.4,8.6,11.6,18,16.7,27.4c2,3.6,3.9,7.3,5.8,11c0.4,0.9,0.9,1.7,1.3,2.6c0.3,0.5,0.3,1,0.3,0.2v0.6c-0.2,5.2,0,10.4,0,15.6v38.1
			l1.3-1.3H58.5c-1.8,0-3.5-0.1-5.3,0c-0.6,0,0.4,0.3,0.2,0.1c-0.4-0.3-1.1-0.5-1.6-0.8c-1.5-0.7-3-1.5-4.5-2.3
			C35,95.9,22.4,89.5,11.2,81.4c-0.8-0.5-1.6,0.1-1.9,0.8c-3.2,7.7-4.7,16.2-3.8,24.5c0.6,5.3,2.2,10.4,4.7,15.1
			c1.9,3.6,4.3,6.9,6.4,10.4v-1.3c-2.1,3.4-4.5,6.8-6.4,10.3c-2.5,4.7-4.1,9.8-4.7,15.1c-1,8.3,0.6,16.8,3.8,24.5
			c0.3,0.7,1.2,1.3,1.9,0.8c10.2-7.3,21.5-13.2,32.7-19c2-1,4-2,6-3c1.1-0.5,2.5-1,3.5-1.7c0.7-0.5-0.7,0-0.1,0h70.9l-1.3-1.3v186.5
			c0,0.2,0.5-0.8,0-0.2c-0.4,0.5-0.6,1.2-0.9,1.7c-5.6,10.9-11.4,21.6-18,31.9c-1.7,2.6-3.4,5.2-5.2,7.7c-0.5,0.7,0.1,1.6,0.8,1.9
			c8.8,3.5,18.6,5,28,3.3c8.5-1.5,15.4-6.1,22.7-10.5h-1.3c4.1,2.5,8,5.2,12.4,7.2c5.8,2.6,12,4,18.3,4
			C181.2,389.9,181.2,387.4,179.5,387.4L179.5,387.4L179.5,387.4z"/>
		<path class="st0" d="M120.8,375.9c6.7-11.3,12.7-23,14.3-26.2l1.9-3.8V143.7H49.9l-3.8,1.9c-3.2,1.6-15.1,7.5-26.6,14.1
			c0.2-4.5,1.5-9.4,4.5-14.1c1.1-1.7,2.1-3.3,3.1-4.8l5.7-9.3l-5.8-9.3c-1-1.6-2-3.2-3.1-4.8c-3.1-4.7-4.3-9.6-4.5-14.1
			c11.5,6.6,23.4,12.5,26.6,14.1l3.8,1.9H137V49.1l-1.9-3.8c-1.6-3.2-7.6-14.8-14.3-26.2c5.2,0.2,9.9,1.7,14.3,4.5
			c1.7,1.1,3.3,2.1,4.9,3l9.4,5.6l9.4-5.6c1.6-0.9,3.2-1.9,4.9-3c4.4-2.8,9.1-4.2,14.3-4.5c-6.7,11.3-12.7,23-14.3,26.2l-1.9,3.8
			v70.1H249l3.8-1.9c3.2-1.6,15.1-7.5,26.6-14.1c-0.2,4.5-1.5,9.4-4.5,14.1c-1.1,1.7-2.1,3.3-3.1,4.8l-5.8,9.3l5.8,9.3
			c1,1.6,2,3.1,3.1,4.8c3.1,4.7,4.3,9.6,4.5,14.1c-11.5-6.6-23.4-12.5-26.6-14.1l-3.8-1.9h-87.1V346l1.9,3.8
			c1.6,3.2,7.6,14.8,14.3,26.2c-5.2-0.2-9.9-1.7-14.3-4.5c-1.7-1.1-3.3-2.1-4.9-3l-9.4-5.7l-9.4,5.7c-1.6,0.9-3.2,1.9-4.9,3
			C130.7,374.2,126,375.6,120.8,375.9L120.8,375.9z"/>
		<path class="st0" d="M121.9,376.5c4.5-7.7,8.8-15.5,12.9-23.5c0.9-1.7,1.8-3.5,2.7-5.2c0.3-0.7,0.8-1.3,0.8-2.1
			c0.3-2.7,0-5.5,0-8.2V172.7c0-9.5,0.3-19.1,0-28.7v-0.4c0-0.7-0.6-1.3-1.3-1.3H96.9c-15.4,0-30.8-0.2-46.3,0c-0.7,0-1,0.1-1.6,0.3
			c-1.9,0.8-3.8,1.9-5.7,2.8c-8.3,4.1-16.4,8.4-24.5,13l1.9,1.1c0.2-4,1.2-7.9,3.2-11.5c1.4-2.6,3.1-4.9,4.6-7.4
			c1.8-2.9,3.6-5.8,5.4-8.7c0.2-0.4,0.2-0.9,0-1.3c-1.8-2.9-3.6-5.8-5.4-8.7c-1.5-2.4-3.1-4.7-4.5-7.1c-2-3.6-3.1-7.6-3.3-11.7
			l-1.9,1.1c7.5,4.2,15.1,8.3,22.8,12.2c1.7,0.8,3.4,1.7,5.1,2.5c1,0.5,2.2,1.3,3.4,1.4c1.5,0.2,3.1,0,4.6,0H137
			c0.7,0,1.3-0.6,1.3-1.3V52.8c0-1.2,0.2-2.5,0-3.6c-0.2-1.3-1.2-2.7-1.8-3.9c-0.9-1.7-1.7-3.4-2.6-5.1c-3.8-7.3-7.8-14.6-12-21.7
			l-1.1,1.9c4.1,0.2,8.2,1.2,11.8,3.2c2.5,1.4,4.9,3,7.4,4.5c2.9,1.8,5.9,3.5,8.9,5.3c0.4,0.2,0.9,0.2,1.3,0
			c2.9-1.8,5.9-3.5,8.9-5.3c2.4-1.4,4.7-3,7.1-4.3c3.7-2.1,7.8-3.1,12.1-3.4l-1.1-1.9c-3.8,6.5-7.5,13.2-11,19.9
			c-1.7,3.2-3.8,6.5-5.1,9.9c-0.4,1-0.2,2-0.2,3.1v67.8c0,0.7,0.6,1.3,1.3,1.3h40.1c15.4,0,30.9,0.2,46.3,0c0.6,0,1-0.1,1.6-0.3
			c1.9-0.8,3.8-1.9,5.7-2.8c8.3-4.1,16.4-8.4,24.4-13l-1.9-1.1c-0.2,4-1.2,7.9-3.2,11.5c-1.4,2.6-3.1,4.9-4.6,7.4
			c-1.8,2.9-3.6,5.8-5.4,8.7c-0.2,0.4-0.2,0.9,0,1.3c1.8,2.9,3.6,5.8,5.4,8.7c1.5,2.4,3.1,4.7,4.5,7.1c2,3.6,3.1,7.6,3.3,11.7
			l1.9-1.1c-7.5-4.2-15.1-8.3-22.8-12.1c-1.7-0.8-3.4-1.7-5.1-2.5c-1-0.5-2.2-1.3-3.4-1.4c-1.5-0.1-3.1,0-4.6,0H162
			c-0.7,0-1.3,0.6-1.3,1.3v201.3c0,1.2,0.3,1.9,0.9,3.1c2.7,5.3,5.4,10.5,8.3,15.7c2.3,4.3,4.7,8.6,7.2,12.8l1.1-1.9
			c-4.1-0.2-8.1-1.2-11.8-3.2c-2.5-1.4-4.9-3-7.4-4.5c-2.9-1.8-5.9-3.5-8.9-5.3c-0.4-0.2-0.9-0.2-1.3,0c-2.9,1.8-5.9,3.6-8.9,5.3
			c-2.4,1.4-4.7,3-7.1,4.3c-3.7,2.1-7.8,3.1-12.1,3.4c-1.7,0.1-1.7,2.6,0,2.5c4-0.2,7.8-1.1,11.5-2.8c3.1-1.4,5.9-3.4,8.7-5.1
			c3.1-1.8,6.1-3.7,9.1-5.5h-1.3c3.1,1.8,6.1,3.7,9.1,5.5c2.8,1.7,5.5,3.6,8.4,5c3.7,1.8,7.6,2.6,11.7,2.9c1,0,1.6-1.1,1.1-1.9
			c-4.5-7.6-8.7-15.4-12.8-23.3c-0.9-1.8-1.8-3.6-2.8-5.4c-0.1-0.1-0.5-1.2-0.6-1.2c-0.1,0,0.1,0.7,0.1,0.5v-0.2c0.2-0.8,0-2,0-2.8
			V147.2c0-1,0.2-2.2,0-3.2v-0.4l-1.3,1.3h86.2c0.2,0,0.5,0.1,0.7,0c0.5-0.1-0.6-0.4-0.2,0c1.6,1.2,3.9,1.9,5.7,2.8
			c8.3,4.1,16.4,8.4,24.5,13c0.8,0.5,2-0.1,1.9-1.1c-0.2-3.8-1.1-7.5-2.7-11c-1.4-3.1-3.5-5.9-5.3-8.8s-3.7-6-5.6-9v1.3
			c1.9-3,3.7-6,5.6-9c1.8-2.8,3.8-5.6,5.1-8.6c1.7-3.6,2.6-7.4,2.8-11.3c0-1-1.1-1.6-1.9-1.1c-7.5,4.2-15.1,8.3-22.8,12.2
			c-1.7,0.8-3.4,1.7-5.1,2.5c-0.6,0.3-2.1,0.7-2.5,1.2c0.4-0.6,0.9,0,0.4-0.2c-1.4-0.4-3.5,0-4.9,0h-81.9l1.3,1.3V50.5
			c0-0.3,0.2-1.1,0-1.3c-0.1-0.1-0.4,0.8,0.1,0c0.5-0.9,1-1.9,1.4-2.8c0.9-1.7,1.7-3.3,2.6-4.9c3.8-7.3,7.8-14.6,12-21.7
			c0.5-0.8-0.1-2-1.1-1.9c-4,0.2-7.9,1.1-11.5,2.8c-3.1,1.4-5.9,3.4-8.7,5.1c-3,1.8-6.1,3.6-9.1,5.5h1.3c-3-1.8-6.1-3.6-9.1-5.5
			c-2.8-1.7-5.5-3.6-8.5-5c-3.7-1.8-7.6-2.6-11.8-2.9c-1,0-1.6,1.1-1.1,1.9c3.8,6.5,7.4,13,10.9,19.6c1,2,2.1,4,3.1,5.9
			c0.7,1.3,1.2,2.9,2.1,4c0.4,0.5,0.1-0.5,0-0.2c-0.1,0.1,0,0.4,0,0.5c0,0.7,0,1.3,0,2v67.5l1.3-1.3H50.8c-0.2,0-0.5-0.1-0.7,0
			c-0.5,0.2,0.7,0.4,0.2,0c-1.6-1.2-3.9-1.9-5.7-2.8c-8.3-4.1-16.4-8.4-24.5-13c-0.8-0.5-2,0.1-1.9,1.1c0.2,3.8,1.1,7.5,2.7,11
			c1.4,3.1,3.5,5.9,5.3,8.8c1.8,2.9,3.7,6,5.6,9v-1.3c-1.9,3-3.7,6-5.6,9c-1.8,2.8-3.8,5.6-5.2,8.6c-1.7,3.6-2.6,7.4-2.8,11.3
			c0,1,1.1,1.6,1.9,1.1c7.5-4.2,15.1-8.3,22.8-12.1c1.7-0.8,3.4-1.7,5.1-2.5c0.6-0.3,2.1-0.7,2.5-1.2c-0.4,0.6-0.8,0-0.4,0.1
			c1.4,0.4,3.5,0,4.9,0h81.9l-1.3-1.3v201.1c0,0.3-0.1,0.7,0,1v0.2c0,0.1,0.1-0.6,0.2-0.6c-0.3,0.3-0.6,1.1-0.8,1.5
			c-2.7,5.2-5.4,10.4-8.2,15.6c-2.3,4.3-4.7,8.6-7.2,12.8C118.8,376.7,121,378,121.9,376.5L121.9,376.5L121.9,376.5z"/>
	</g>
</g>
</svg>
