<?xml version="1.0" encoding="UTF-8"?>
<svg id="Layer_2" data-name="Layer 2" xmlns="http://www.w3.org/2000/svg" viewBox="0 0 1713.06 596.64">
  <defs>
    <style>
      .cls-1 {
        fill: #e0bb70;
      }
    </style>
  </defs>
  <g id="Layer_1-2" data-name="Layer 1">
    <g>
      <g>
        <path class="cls-1" d="m47.92.7c60.08-8.96,107.33,69.2,71.69,167.7C86.51,257.02,10.76,317.04,14.66,398.97c4.63,32.11,19.2,58.29,47.16,71.89,16.51,7.95,37.61,10.01,50.74,7.87,5.71-27.59,25.8-48.19,55.3-54.28,9.95-63.53-50.86-72.63-73.55-51.24-18.25,15.44-15.31,46.11-2.6,57.24,16.49,13.59,32.75-5.2,39.39,3.39,7.64,10.35-26.41,20.04-44.28-3.17-17.61-23.15-9.7-64.94,29.07-71,21.8-3.33,42.79,6.28,52.04,25.87,8.25,17.15,5.01,35.54,5.16,38.06,12.02-.86,25.54-1.56,39.5,5.75,27.06,14.14,31.45,49.31,16.96,70.8-16.38,24.36-52.25,23.2-68.79,4.58-13.46-14.85-10.09-38.54-1.44-40.2,2.16-.34,5.3,1,5.99,5.26.35,3.14-2.49,9.96-3.45,14.94-7.41,35.27,52.68,43.44,68.3,6.71,9.35-22.36,1.48-52.89-27.58-61.44-12.4-3.91-28.19-1.97-30.51-1.25-4.42,22.43-16.79,39.19-38.62,50.23-15.73,7.28-16.19,1.79-16.06,10.99-2.95,33.35,13.99,69.24,52.89,85.25,12.8,4.92,25.28,7.01,32.45,7.01,2.61.04,13.36.17,16.05-.43-.87.05-1.74.15-2.61.17,66.7-9.18,115.91-57.95,178.57-90.21,64.75-33.35,102.42-26.39,110.2-27.08-.52.05-1.03.09-1.54.15,111.77,8.26,112.44,108.6,58.88,126.1-14.16,4.45-28.99,2.6-37.61-1.8-14.64-7.1-21.53-23.4-21.16-35.02-.63-30.96,31.71-46.15,51.67-34.72,11.92,6.67,15.11,16.67,13.11,22.86-1.49,4.32-6.23,4.22-8.24,1.58-6.04-7.79.98-18.47-8.5-24.93-3.37-2.41-18.87-4.64-33.04,6.9-11.66,10.34-14.09,26.02-9.34,39.48,11.5,32.97,58.45,28.79,72.55,2.74,13.15-23.43,9.3-86.03-91.51-70.02-20.26,3.32-40.1,9.53-42.14,10.35.5.46,1.21.16,1.82.16,58.42-3.92,57.25,63.53,19.62,62.67-19.76.37-32.72-22.26-22.26-36.79,3.58-5.26,10.45-8.31,16.42-5.34-1.35.34-6.39-.12-9.66,4.92-7.01,10.36,1.75,21.6,9.95,23.38,4.67,1.17,10.41-.83,12.39-2.69,3.76-3.36,4.78-10.18,3.61-14.77-3.1-14.84-23.2-17.8-33.6-16.07-27.89,1.98-76.87,24.78-123.8,42.86-60.04,23.08-78.38,22.36-86.61,24.09-58.12,11.4-131.53-23.08-124.59-105.42-.62-.01-7.56.51-7.72.54-50.94,1.35-85.69-30.07-96.6-75.29-21.19-85.89,73.02-221.65,65.76-270.51-1.69-24.56-20.82-26.75-28.99-21.43-7.39,4.98-7.77,21.43,7.37,26.2,5.22,1.24,11.27-.69,14.41-5.15,1.39-1.93,1.67-4.35,1.85-6.65,5.9,9.04-7.79,24.62-23.88,18.91-24.1-7.62-24.74-43.18.97-50.23,18.38-5.19,42.07,6.38,43.55,37.43.41,3.05-.2,6.49-.02,9.29.1-.14.29-.41.39-.55,15.04-47.48,24.06-115.58-17.27-134.27C50.93,4.26,11.85,8.57,7.98,49.51c-1.14,45.92,49.81,49.87,65.45,24.95,5.9-9,7.56-19.53,5.04-27.89-3.92-8.89-13.85-6.43-17.72-7.2-13.76-1.53-11.94-11.58-3.06-11.54,12.11-.37,22.27,13.86,23.08,25.95,2.78,38.16-45.44,52.04-68.14,26.05C-2.2,63.07-.79,26.45,23.8,9.57,30.92,4.61,39.35,1.77,47.92.7m71.25,476.8c14.54-2.78,32-13.36,41.69-32.06,3.14-5.95,5.72-13.74,5.65-15.46-11.39,1.27-40.1,15.22-47.34,47.52Z"/>
        <path class="cls-1" d="m181.42,320.35c-.62,33.67-31.9,37.17-45.94,24.97-13.27-11.61-8.53-32.36,7.23-35.6,12.04-2.97,21.8,8.15,19.38,15.11-.92,2.5-4.01,2.16-5.15-.36-1.12-2.1.12-6.85-.78-10.07-1.94-6.21-23.84-5.97-25.83,11.48-.9,25.49,33.91,30.24,44.15,8.9,15.18-33.17-34.11-62.76-83.35-45.27C10.29,317.85-1.03,446.48,71.07,465.93c14.33,3.95,25.29,2.24,26.4,2.39-1.65.94-39.49,7.67-63.29-23.33-39.2-51.64-7.37-146.95,64.54-163.63,40.27-9.6,80.95,9.38,82.7,38.99Z"/>
        <path class="cls-1" d="m305.93,433.95c29.38,44.25,4.75,120.12-67.97,140.76-21.69,6.15-35.82,4.08-41.48,4.23.37-.04.73-.11,1.11-.11-1.79-.41-36.3-1.65-56.54-26.86-16.45-21.39-14.85-46.51-12.83-52.56.41,4.3-2.45,24.1,10.3,43.41,21.86,32.69,68.98,37.27,105.1,23.82,80.99-29.95,82.32-119.78,45.67-142.81-13.3-7.93-28.15-4.32-35.6,4.51-6.93,7.05-7.59,23.67,1.36,32.27,6.19,6.28,15.62,7.41,22.54,3.41,8.33-4.72,10.52-16.18,6.4-22.53-2.11-3.55-13.59,1.39-13.86-4.73.09-5.34,15.97-2.83,17.22,12.23,1.4,6.58-5.28,19.04-17.68,19.67-7.45,1.3-20.07-4.24-23.6-17.62-8.58-34.51,37.32-51.67,59.86-17.09Z"/>
        <path class="cls-1" d="m46.18,474.57c9.01,12.65,33.65,16.2,49.12,17.08-.43.19-.9.02-1.33.15.81.04,1.62.08,2.4.33-3.74,1.78-59.38,18.33-92.02-.58,1.74-.64,15.3-3.6,28.83-9.66,8.39-3.69,11.89-6.77,13-7.32Z"/>
        <path class="cls-1" d="m98.57,495.55s-88.06,88.04-90.47,90.44c2.89-11.58,3.7-20.5,3.58-22.49.25,1.23,0,2.47-.06,3.71.84-4.74,2.37-36.05-11.62-67.26,33.2,9.39,70.9,6.28,98.57-4.4Z"/>
        <path class="cls-1" d="m128.48,497.59c.17.53.18,1.1,0,1.64-.07-.55-.07-1.1,0-1.64Z"/>
        <path class="cls-1" d="m101.02,498.21c-11.01,29.81-13.44,66.44-4.23,98.43-23.47-11.48-58.81-15.98-86-8.12.59-.9,89.67-89.89,90.23-90.31Z"/>
        <path class="cls-1" d="m104.76,499.47c1.21,16.22,4.15,41.55,17.41,50.91-8.32,12.61-13.67,27.73-16.84,41.66-.13-.03-.27-.04-.4-.05-7.16-14.25-11.26-31.64-7.8-56.84,2.14-18.06,6.77-33.99,7.63-35.69Z"/>
      </g>
      <g>
        <path class="cls-1" d="m1665.14.7c8.56,1.06,17,3.91,24.11,8.87,24.59,16.88,26,53.49,11.18,70.26-22.7,25.98-70.93,12.11-68.14-26.05.81-12.09,10.97-26.32,23.08-25.95,8.88-.05,10.7,10.01-3.06,11.54-3.87.76-13.8-1.69-17.72,7.2-2.52,8.36-.87,18.89,5.04,27.89,15.63,24.93,66.58,20.97,65.45-24.95-3.87-40.94-42.95-45.25-63.19-35.85-41.33,18.69-32.31,86.79-17.27,134.27.1.14.29.41.39.55.19-2.8-.42-6.25-.02-9.29,1.48-31.06,25.17-42.62,43.55-37.43,25.71,7.05,25.07,42.61.97,50.23-16.08,5.71-29.77-9.87-23.88-18.91.18,2.3.47,4.72,1.85,6.65,3.14,4.46,9.19,6.39,14.41,5.15,15.14-4.77,14.76-21.22,7.37-26.2-8.17-5.32-27.3-3.12-28.99,21.43-7.27,48.86,86.95,184.62,65.76,270.51-10.91,45.22-45.66,76.64-96.6,75.29-.16-.03-7.1-.55-7.72-.54,6.94,82.35-66.47,116.82-124.59,105.42-8.23-1.73-26.56-1.01-86.61-24.09-46.94-18.08-95.92-40.88-123.8-42.86-10.39-1.73-30.5,1.22-33.6,16.07-1.17,4.6-.15,11.41,3.61,14.77,1.99,1.86,7.72,3.86,12.39,2.69,8.2-1.78,16.96-13.02,9.95-23.38-3.28-5.04-8.31-4.59-9.66-4.92,5.97-2.97,12.84.09,16.42,5.34,10.45,14.53-2.51,37.16-22.26,36.79-37.63.86-38.8-66.59,19.62-62.67.61,0,1.32.31,1.82-.16-2.05-.83-21.88-7.04-42.14-10.35-100.81-16.02-104.67,46.59-91.51,70.02,14.09,26.05,61.05,30.24,72.55-2.74,4.75-13.47,2.32-29.14-9.34-39.48-14.17-11.54-29.67-9.32-33.04-6.9-9.48,6.46-2.45,17.14-8.5,24.93-2.01,2.64-6.75,2.75-8.24-1.58-2-6.2,1.19-16.2,13.11-22.86,19.95-11.43,52.3,3.75,51.67,34.72.37,11.62-6.52,27.92-21.16,35.02-8.62,4.4-23.45,6.25-37.61,1.8-53.56-17.5-52.89-117.84,58.88-126.1-.51-.07-1.03-.1-1.54-.15,7.78.69,45.45-6.27,110.2,27.08,62.67,32.26,111.87,81.03,178.57,90.21-.87-.01-1.74-.11-2.61-.17,2.69.59,13.44.47,16.05.43,7.16,0,19.65-2.09,32.45-7.01,38.9-16.01,55.84-51.9,52.89-85.25.13-9.2-.33-3.71-16.06-10.99-21.83-11.03-34.2-27.8-38.62-50.23-2.31-.72-18.11-2.66-30.51,1.25-29.06,8.54-36.92,39.08-27.58,61.44,15.62,36.73,75.71,28.56,68.3-6.71-.96-4.98-3.8-11.81-3.45-14.94.68-4.26,3.83-5.6,5.99-5.26,8.65,1.66,12.02,25.35-1.44,40.2-16.54,18.62-52.42,19.78-68.79-4.58-14.5-21.49-10.11-56.67,16.96-70.8,13.96-7.31,27.49-6.61,39.5-5.75.15-2.52-3.09-20.91,5.16-38.06,9.25-19.59,30.24-29.21,52.04-25.87,38.77,6.06,46.68,47.85,29.07,71-17.87,23.21-51.92,13.52-44.28,3.17,6.63-8.59,22.9,10.2,39.39-3.39,12.71-11.13,15.65-41.8-2.6-57.24-22.69-21.39-83.5-12.29-73.55,51.24,29.51,6.09,49.59,26.69,55.3,54.28,13.12,2.14,34.23.08,50.74-7.87,27.96-13.61,42.52-39.79,47.16-71.89,3.9-81.93-71.85-141.95-104.95-230.57-35.64-98.5,11.61-176.66,71.69-167.7m-118.59,429.28c-.06,1.72,2.51,9.51,5.65,15.46,9.69,18.71,27.15,29.29,41.69,32.06-7.24-32.3-35.96-46.26-47.34-47.52Z"/>
        <path class="cls-1" d="m1614.34,281.36c71.92,16.68,103.74,111.98,64.54,163.63-23.8,31-61.64,24.27-63.29,23.33,1.11-.15,12.06,1.56,26.4-2.39,72.1-19.45,60.79-148.08-20.05-176.4-49.23-17.49-98.53,12.11-83.35,45.27,10.24,21.34,45.05,16.59,44.15-8.9-1.98-17.45-23.88-17.7-25.83-11.48-.9,3.22.34,7.97-.78,10.07-1.15,2.51-4.23,2.86-5.15.36-2.42-6.97,7.33-18.08,19.38-15.11,15.76,3.24,20.5,23.99,7.23,35.6-14.04,12.2-45.32,8.7-45.94-24.97,1.75-29.62,42.44-48.59,82.7-38.99Z"/>
        <path class="cls-1" d="m1466.98,451.04c-3.52,13.38-16.15,18.92-23.6,17.62-12.4-.62-19.08-13.09-17.68-19.67,1.26-15.06,17.13-17.57,17.22-12.23-.27,6.12-11.75,1.18-13.86,4.73-4.12,6.36-1.93,17.81,6.4,22.53,6.93,4,16.36,2.87,22.54-3.41,8.95-8.6,8.29-25.22,1.36-32.27-7.45-8.83-22.29-12.45-35.6-4.51-36.64,23.03-35.32,112.87,45.67,142.81,36.12,13.45,83.24,8.87,105.1-23.82,12.75-19.31,9.88-39.11,10.3-43.41,2.02,6.05,3.61,31.17-12.83,52.56-20.24,25.21-54.74,26.45-56.54,26.86.37,0,.74.07,1.11.11-5.66-.15-19.79,1.92-41.48-4.23-72.72-20.64-97.36-96.51-67.97-140.76,22.54-34.58,68.43-17.42,59.86,17.09Z"/>
        <path class="cls-1" d="m1679.88,481.88c13.53,6.06,27.08,9.02,28.83,9.66-32.63,18.92-88.27,2.37-92.02.58.78-.25,1.59-.3,2.4-.33-.44-.14-.9.04-1.33-.15,15.47-.88,40.11-4.43,49.12-17.08,1.11.54,4.61,3.63,13,7.32Z"/>
        <path class="cls-1" d="m1713.06,499.96c-13.98,31.21-12.46,62.52-11.62,67.26-.05-1.24-.31-2.48-.06-3.71-.13,1.99.69,10.91,3.58,22.49-2.41-2.4-90.47-90.44-90.47-90.44,27.67,10.68,65.37,13.8,98.57,4.4Z"/>
        <path class="cls-1" d="m1584.58,499.23c-.18-.54-.17-1.11,0-1.64.07.54.07,1.09,0,1.64Z"/>
        <path class="cls-1" d="m1702.28,588.52c-27.19-7.86-62.53-3.35-86,8.12,9.21-31.99,6.78-68.62-4.23-98.43.56.42,89.64,89.4,90.23,90.31Z"/>
        <path class="cls-1" d="m1615.93,535.16c3.46,25.19-.64,42.58-7.8,56.84-.13.01-.27.03-.4.05-3.17-13.94-8.52-29.05-16.84-41.66,13.26-9.36,16.2-34.69,17.41-50.91.86,1.7,5.49,17.62,7.63,35.69Z"/>
      </g>
    </g>
  </g>
</svg>