<svg width="50" height="50" viewBox="0 0 50 50" fill="none" xmlns="http://www.w3.org/2000/svg">
<path d="M0 37.7158V4.25806C15.109 7.3304 25 16.5424 25 16.5424V50.0002C25 50.0002 15.109 40.7882 0 37.7158Z" fill="url(#paint0_linear_209_4)"/>
<path d="M24.9999 14.489C24.9999 14.489 17.7965 7.07295 2.74805 2.98658V0C13.3473 2.58803 21.2468 7.83977 24.9938 10.7255V14.489H24.9999Z" fill="url(#paint1_linear_209_4)"/>
<path d="M25 50.0002V16.5424C25 16.5424 34.891 7.3304 50 4.25806V37.7158C34.891 40.7882 25 50.0002 25 50.0002Z" fill="url(#paint2_linear_209_4)"/>
<path d="M25.0061 14.489V10.7255C28.753 7.83977 36.6525 2.58803 47.2518 0V2.98658C32.2034 7.07295 25 14.489 25 14.489H25.0061Z" fill="url(#paint3_linear_209_4)"/>
<defs>
<linearGradient id="paint0_linear_209_4" x1="0" y1="27.1316" x2="25" y2="27.1316" gradientUnits="userSpaceOnUse">
<stop stop-color="#6E3B3B"/>
<stop offset="1" stop-color="#F3CF7A"/>
<stop offset="1" stop-color="#F3CF7A"/>
</linearGradient>
<linearGradient id="paint1_linear_209_4" x1="2.74805" y1="7.24448" x2="24.9999" y2="7.24448" gradientUnits="userSpaceOnUse">
<stop stop-color="#6E3B3B"/>
<stop offset="1" stop-color="#F3CF7A"/>
</linearGradient>
<linearGradient id="paint2_linear_209_4" x1="50" y1="27.1266" x2="25" y2="27.1266" gradientUnits="userSpaceOnUse">
<stop stop-color="#F3CF7A"/>
<stop offset="1" stop-color="#6E3B3B"/>
</linearGradient>
<linearGradient id="paint3_linear_209_4" x1="47.2518" y1="7.24448" x2="25" y2="7.24448" gradientUnits="userSpaceOnUse">
<stop stop-color="#F3CF7A"/>
<stop offset="1" stop-color="#6E3B3B"/>
</linearGradient>
</defs>
</svg>
