<?xml version="1.0" encoding="UTF-8"?>
<svg id="Layer_2" data-name="Layer 2" xmlns="http://www.w3.org/2000/svg" xmlns:xlink="http://www.w3.org/1999/xlink" viewBox="0 0 924 290">
  <defs>
    <style>
      .cls-1, .cls-2 {
        fill: #f8eacb;
      }

      .cls-3 {
        fill: #d8c8ab;
      }

      .cls-4 {
        fill: none;
        stroke: #f8eacb;
        stroke-linecap: square;
        stroke-miterlimit: 10;
      }

      .cls-2, .cls-5 {
        opacity: .31;
      }

      .cls-6 {
        fill: #6f0b20;
        filter: url(#drop-shadow-1);
      }

      .cls-7 {
        fill: #eae9f0;
      }

      .cls-8 {
        fill: #f5f7f8;
      }
    </style>
    <filter id="drop-shadow-1" x="0" y="0" width="924" height="290" filterUnits="userSpaceOnUse">
      <feOffset dx="0" dy="0"/>
      <feGaussianBlur result="blur" stdDeviation="11.09"/>
      <feFlood flood-color="#4c4c4c" flood-opacity=".25"/>
      <feComposite in2="blur" operator="in"/>
      <feComposite in="SourceGraphic"/>
    </filter>
  </defs>
  <g id="OBJECTS">
    <g>
      <rect class="cls-6" x="33.42" y="33.92" width="856" height="222"/>
      <g class="cls-5">
        <path class="cls-4" d="M191.77,129.77c-.49,1.57-2.15,2.45-3.72,1.96-1.57-.49-2.45-2.15-1.96-3.72.49-1.57,2.15-2.45,3.72-1.96,1.57.49,2.45,2.15,1.96,3.72Z"/>
        <line class="cls-4" x1="186.62" y1="136.33" x2="178.31" y2="163.14"/>
        <line class="cls-4" x1="199.55" y1="94.64" x2="191.3" y2="121.25"/>
        <line class="cls-4" x1="181.18" y1="131.31" x2="154.7" y2="139.56"/>
        <line class="cls-4" x1="223.16" y1="118.22" x2="196.68" y2="126.47"/>
        <line class="cls-4" x1="193.72" y1="134.97" x2="211.11" y2="157.06"/>
        <line class="cls-4" x1="166.74" y1="100.72" x2="184.11" y2="122.77"/>
        <line class="cls-4" x1="163.68" y1="153.58" x2="161.05" y2="156.14"/>
        <line class="cls-4" x1="180.75" y1="136.89" x2="168.02" y2="149.34"/>
        <line class="cls-4" x1="209.94" y1="108.35" x2="196.92" y2="121.08"/>
        <line class="cls-4" x1="216.8" y1="101.64" x2="214.67" y2="103.72"/>
        <line class="cls-4" x1="155.1" y1="120.95" x2="150.97" y2="119.99"/>
        <line class="cls-4" x1="178.17" y1="126.37" x2="160.48" y2="122.22"/>
        <line class="cls-4" x1="217.5" y1="135.59" x2="199.86" y2="131.46"/>
        <line class="cls-4" x1="226.88" y1="137.79" x2="223.43" y2="136.98"/>
        <line class="cls-4" x1="194.93" y1="163.62" x2="195.57" y2="167.31"/>
        <line class="cls-4" x1="190.91" y1="140.35" x2="194" y2="158.23"/>
        <line class="cls-4" x1="183.88" y1="99.7" x2="187.01" y2="117.77"/>
        <line class="cls-4" x1="182.75" y1="93.15" x2="182.84" y2="93.67"/>
        <line class="cls-4" x1="182.29" y1="90.47" x2="182.84" y2="93.69"/>
      </g>
      <g class="cls-5">
        <path class="cls-4" d="M78.21,214.4c-.34,1.11-1.52,1.73-2.63,1.39-1.11-.34-1.73-1.52-1.39-2.63.34-1.11,1.52-1.73,2.63-1.39,1.11.34,1.73,1.52,1.39,2.63Z"/>
        <line class="cls-4" x1="74.57" y1="219.05" x2="68.68" y2="238.03"/>
        <line class="cls-4" x1="83.72" y1="189.53" x2="77.88" y2="208.37"/>
        <line class="cls-4" x1="70.72" y1="215.49" x2="51.97" y2="221.33"/>
        <line class="cls-4" x1="100.44" y1="206.22" x2="81.69" y2="212.07"/>
        <line class="cls-4" x1="79.59" y1="218.08" x2="91.91" y2="233.72"/>
        <line class="cls-4" x1="60.5" y1="193.83" x2="72.79" y2="209.44"/>
        <line class="cls-4" x1="58.33" y1="231.26" x2="56.47" y2="233.08"/>
        <line class="cls-4" x1="70.41" y1="219.44" x2="61.4" y2="228.25"/>
        <line class="cls-4" x1="91.08" y1="199.23" x2="81.86" y2="208.25"/>
        <line class="cls-4" x1="95.94" y1="194.48" x2="94.43" y2="195.96"/>
        <line class="cls-4" x1="52.25" y1="208.16" x2="49.33" y2="207.47"/>
        <line class="cls-4" x1="68.59" y1="211.99" x2="56.06" y2="209.06"/>
        <line class="cls-4" x1="96.43" y1="218.53" x2="83.95" y2="215.6"/>
        <line class="cls-4" x1="103.08" y1="220.08" x2="100.63" y2="219.51"/>
        <line class="cls-4" x1="80.46" y1="238.37" x2="80.91" y2="240.98"/>
        <line class="cls-4" x1="77.61" y1="221.89" x2="79.8" y2="234.55"/>
        <line class="cls-4" x1="72.63" y1="193.11" x2="74.84" y2="205.9"/>
        <line class="cls-4" x1="71.83" y1="188.47" x2="71.89" y2="188.84"/>
        <line class="cls-4" x1="71.5" y1="186.58" x2="71.89" y2="188.86"/>
      </g>
      <g class="cls-5">
        <path class="cls-4" d="M86.53,82.35c-.48,1.53-2.11,2.39-3.64,1.92-1.53-.48-2.39-2.11-1.92-3.64.48-1.53,2.11-2.39,3.64-1.92,1.53.48,2.39,2.11,1.92,3.64Z"/>
        <line class="cls-4" x1="81.49" y1="88.77" x2="73.36" y2="115"/>
        <line class="cls-4" x1="94.15" y1="47.98" x2="86.07" y2="74.01"/>
        <line class="cls-4" x1="76.17" y1="83.86" x2="50.25" y2="91.93"/>
        <line class="cls-4" x1="117.25" y1="71.05" x2="91.33" y2="79.13"/>
        <line class="cls-4" x1="88.44" y1="87.44" x2="105.46" y2="109.06"/>
        <line class="cls-4" x1="62.04" y1="53.93" x2="79.03" y2="75.5"/>
        <line class="cls-4" x1="59.04" y1="105.65" x2="56.47" y2="108.16"/>
        <line class="cls-4" x1="75.74" y1="89.32" x2="63.29" y2="101.5"/>
        <line class="cls-4" x1="104.31" y1="61.39" x2="91.57" y2="73.85"/>
        <line class="cls-4" x1="111.03" y1="54.82" x2="108.95" y2="56.86"/>
        <line class="cls-4" x1="50.65" y1="73.73" x2="46.61" y2="72.78"/>
        <line class="cls-4" x1="73.22" y1="79.02" x2="55.92" y2="74.96"/>
        <line class="cls-4" x1="111.71" y1="88.05" x2="94.45" y2="84"/>
        <line class="cls-4" x1="120.89" y1="90.2" x2="117.52" y2="89.41"/>
        <line class="cls-4" x1="89.63" y1="115.48" x2="90.25" y2="119.08"/>
        <line class="cls-4" x1="85.69" y1="92.71" x2="88.72" y2="110.2"/>
        <line class="cls-4" x1="78.81" y1="52.92" x2="81.87" y2="70.61"/>
        <line class="cls-4" x1="77.7" y1="46.51" x2="77.79" y2="47.03"/>
        <line class="cls-4" x1="77.25" y1="43.9" x2="77.8" y2="47.05"/>
      </g>
      <path class="cls-2" d="M108.34,148.65c.59.39,1.18.79,1.78,1.16.66.4.86.86.38,1.55-.41.59-.84.94-1.56.49-1.27-.8-2.54-1.6-3.81-2.38-.25-.16-.51-.43-.84-.23-.35.21-.19.56-.13.85.31,1.47.62,2.93.98,4.39.19.77.01,1.18-.8,1.35-.79.16-1.37.17-1.56-.83-.3-1.55-.66-3.09-1.03-4.62-.16-.65-.56-.74-.94-.17-.84,1.24-1.64,2.51-2.45,3.77-.41.63-.8,1.16-1.68.59-.92-.6-.76-1.21-.25-1.96.8-1.18,1.54-2.38,2.3-3.58.16-.25.41-.56.08-.82-.15-.12-.45-.1-.66-.05-1.39.29-2.77.61-4.16.92-.78.17-1.51.44-1.77-.78-.24-1.1.25-1.37,1.16-1.54,1.32-.24,2.62-.56,3.92-.88.35-.09.88-.03.92-.55.03-.46-.46-.58-.77-.78-1.05-.7-2.13-1.36-3.18-2.06-.64-.43-1.43-.76-.74-1.82.63-.96,1.23-.7,1.96-.21,1.18.79,2.38,1.54,3.59,2.3.24.15.55.44.81.09.11-.15.09-.45.04-.66-.3-1.39-.62-2.77-.93-4.16-.18-.79-.41-1.5.8-1.78,1.13-.26,1.35.27,1.53,1.16.27,1.39.62,2.77.94,4.15.07.3.1.66.49.71.39.06.51-.31.67-.55.77-1.19,1.54-2.39,2.29-3.59.42-.67.86-1.08,1.71-.55.84.51.75,1.08.31,1.77-.64,1-1.28,1.99-1.89,3.01-.27.45-.94.95-.62,1.41.42.62,1.16.06,1.73-.04,1.16-.2,2.31-.5,3.46-.78.72-.18,1.19-.07,1.37.78.17.81.13,1.37-.84,1.57-1.55.31-3.08.67-4.61,1.05-.6.15-.82.5-.21.94.71.5,1.45.96,2.17,1.43.01-.02.02-.03.03-.05Z"/>
      <g class="cls-5">
        <path class="cls-7" d="M144.93,190.1c-.92,1.25-1.25,2.8-1.25,4.3,0,1.52.29,3.03.75,4.47.44,1.45,1.07,2.85,1.82,4.18.38.66.79,1.3,1.26,1.91.45.61.96,1.19,1.52,1.72-1.22-.94-2.21-2.17-3.03-3.48-.82-1.31-1.46-2.74-1.94-4.21-.44-1.48-.74-3.03-.68-4.59.03-.78.15-1.56.4-2.3.25-.73.63-1.43,1.15-2Z"/>
        <path class="cls-1" d="M144.07,194.87c-.07-1.46.07-3.09.33-3.18.26-.09,1.38,1.1,2.23,2.29.9,1.26-2.49,2.44-2.56.89Z"/>
        <path class="cls-1" d="M151.91,165.08c2.87,8.26,1.12,24.82-7.13,27.69s-19.9-9.05-22.76-17.31c-2.87-8.26,1.5-17.27,9.76-20.14s17.27,1.5,20.14,9.76Z"/>
        <path class="cls-3" d="M151.6,168.14c2.2,7.19-.04,21.44-6.95,23.55-6.91,2.11,1.21-5.15-.99-12.34-2.2-7.19-2.71-12,.1-15.87,4.31-5.93,5.64-2.53,7.84,4.66Z"/>
        <g>
          <path class="cls-8" d="M132.26,160.04s-.04.03-.06.04c-.27.16-.54.33-.79.51-.01,0-.03.02-.04.03-.78.51-1.83.31-2.36-.46-.54-.78-.35-1.86.43-2.4.32-.22.64-.43.98-.63.82-.49,1.88-.22,2.37.59.48.8.24,1.82-.53,2.33Z"/>
          <path class="cls-8" d="M126.39,174.29s-.04.03-.06.04c-.82.49-1.88.22-2.37-.59-2.32-3.86-.97-10.08,1.76-12.46.72-.63,1.81-.55,2.43.17.63.72.55,1.81-.17,2.43-1.61,1.4-2.43,5.82-1.07,8.09.48.8.24,1.82-.53,2.33Z"/>
        </g>
      </g>
      <g class="cls-5">
        <path class="cls-7" d="M152.38,79.72c-1.28.48-2.27,1.46-3,2.57-.73,1.12-1.25,2.37-1.6,3.66-.38,1.29-.59,2.62-.67,3.96-.04.67-.04,1.34,0,2.02.04.67.14,1.34.29,2-.45-1.29-.58-2.67-.55-4.03.03-1.37.25-2.72.61-4.04.39-1.31.92-2.59,1.72-3.71.4-.56.86-1.07,1.4-1.5.54-.42,1.15-.76,1.81-.92Z"/>
        <path class="cls-1" d="M149.44,82.82c.65-1.11,1.54-2.24,1.78-2.18.24.06.49,1.48.54,2.76.06,1.37-3.01.6-2.32-.58Z"/>
        <path class="cls-1" d="M169.61,64.63c-1.87,7.47-11.16,18.85-18.63,16.98s-10.3-16.28-8.43-23.76c1.87-7.47,9.45-12.01,16.92-10.14s12.01,9.45,10.14,16.92Z"/>
        <path class="cls-3" d="M167.9,66.74c-1.85,6.36-10.38,15.79-16.5,14.01-6.12-1.78,3.38-3.21,5.23-9.58,1.85-6.36,3.8-10.16,7.74-11.65,6.04-2.29,5.38.86,3.53,7.22Z"/>
        <g>
          <path class="cls-8" d="M157.55,51.42s-.04,0-.06,0c-.28-.01-.56-.01-.83,0-.01,0-.03,0-.04,0-.82,0-1.5-.65-1.52-1.48-.02-.84.64-1.54,1.48-1.56.34,0,.68,0,1.03,0,.84.03,1.49.74,1.46,1.58-.03.82-.71,1.46-1.52,1.46Z"/>
          <path class="cls-8" d="M146.34,59.1s-.04,0-.06,0c-.84-.03-1.49-.74-1.46-1.58.16-3.97,4.15-7.9,7.32-8.34.83-.12,1.6.47,1.71,1.3.12.83-.47,1.6-1.3,1.71-1.86.26-4.6,3.12-4.7,5.45-.03.82-.71,1.46-1.52,1.46Z"/>
        </g>
      </g>
      <g class="cls-5">
        <path class="cls-4" d="M839.82,216.35c.5,1.63,2.23,2.54,3.86,2.03,1.63-.5,2.54-2.23,2.03-3.86-.5-1.63-2.23-2.54-3.86-2.03-1.63.5-2.54,2.23-2.03,3.86Z"/>
        <line class="cls-4" x1="845.17" y1="223.16" x2="853.8" y2="250.98"/>
        <line class="cls-4" x1="831.75" y1="179.89" x2="840.31" y2="207.51"/>
        <line class="cls-4" x1="850.82" y1="217.94" x2="878.3" y2="226.51"/>
        <line class="cls-4" x1="807.24" y1="204.36" x2="834.73" y2="212.93"/>
        <line class="cls-4" x1="837.8" y1="221.74" x2="819.75" y2="244.67"/>
        <line class="cls-4" x1="865.8" y1="186.2" x2="847.78" y2="209.08"/>
        <line class="cls-4" x1="868.98" y1="241.06" x2="871.7" y2="243.72"/>
        <line class="cls-4" x1="851.26" y1="223.74" x2="864.47" y2="236.65"/>
        <line class="cls-4" x1="820.96" y1="194.12" x2="834.48" y2="207.33"/>
        <line class="cls-4" x1="813.84" y1="187.15" x2="816.05" y2="189.31"/>
        <line class="cls-4" x1="877.88" y1="207.2" x2="882.16" y2="206.19"/>
        <line class="cls-4" x1="853.94" y1="212.82" x2="872.29" y2="208.51"/>
        <line class="cls-4" x1="813.12" y1="222.39" x2="831.42" y2="218.1"/>
        <line class="cls-4" x1="803.38" y1="224.68" x2="806.96" y2="223.84"/>
        <line class="cls-4" x1="836.54" y1="251.48" x2="835.88" y2="255.31"/>
        <line class="cls-4" x1="840.71" y1="227.33" x2="837.51" y2="245.88"/>
        <line class="cls-4" x1="848.01" y1="185.14" x2="844.77" y2="203.89"/>
        <line class="cls-4" x1="849.19" y1="178.34" x2="849.09" y2="178.88"/>
        <line class="cls-4" x1="849.67" y1="175.57" x2="849.09" y2="178.91"/>
      </g>
      <g class="cls-5">
        <path class="cls-4" d="M696.68,94.84c.5,1.63,2.23,2.54,3.86,2.03,1.63-.5,2.54-2.23,2.03-3.86-.5-1.63-2.23-2.54-3.86-2.03-1.63.5-2.54,2.23-2.03,3.86Z"/>
        <line class="cls-4" x1="702.02" y1="101.65" x2="710.65" y2="129.47"/>
        <line class="cls-4" x1="688.6" y1="58.38" x2="697.16" y2="86"/>
        <line class="cls-4" x1="707.67" y1="96.43" x2="735.15" y2="105"/>
        <line class="cls-4" x1="664.1" y1="82.85" x2="691.58" y2="91.42"/>
        <line class="cls-4" x1="694.66" y1="100.23" x2="676.6" y2="123.16"/>
        <line class="cls-4" x1="722.65" y1="64.69" x2="704.63" y2="87.57"/>
        <line class="cls-4" x1="725.83" y1="119.55" x2="728.56" y2="122.21"/>
        <line class="cls-4" x1="708.12" y1="102.23" x2="721.32" y2="115.14"/>
        <line class="cls-4" x1="677.82" y1="72.61" x2="691.33" y2="85.82"/>
        <line class="cls-4" x1="670.69" y1="65.64" x2="672.9" y2="67.8"/>
        <line class="cls-4" x1="734.73" y1="85.69" x2="739.02" y2="84.68"/>
        <line class="cls-4" x1="710.79" y1="91.31" x2="729.14" y2="87"/>
        <line class="cls-4" x1="669.97" y1="100.88" x2="688.28" y2="96.59"/>
        <line class="cls-4" x1="660.23" y1="103.17" x2="663.81" y2="102.33"/>
        <line class="cls-4" x1="693.39" y1="129.97" x2="692.73" y2="133.8"/>
        <line class="cls-4" x1="697.57" y1="105.82" x2="694.36" y2="124.37"/>
        <line class="cls-4" x1="704.86" y1="63.63" x2="701.62" y2="82.38"/>
        <line class="cls-4" x1="706.04" y1="56.83" x2="705.95" y2="57.37"/>
        <line class="cls-4" x1="706.52" y1="54.06" x2="705.94" y2="57.4"/>
      </g>
      <g class="cls-5">
        <path class="cls-4" d="M842.17,84.54c.38,1.22,1.67,1.9,2.89,1.52,1.22-.38,1.9-1.67,1.52-2.89-.38-1.22-1.67-1.9-2.89-1.52-1.22.38-1.9,1.67-1.52,2.89Z"/>
        <line class="cls-4" x1="846.17" y1="89.64" x2="852.64" y2="110.5"/>
        <line class="cls-4" x1="836.11" y1="57.21" x2="842.53" y2="77.91"/>
        <line class="cls-4" x1="850.41" y1="85.74" x2="871.01" y2="92.16"/>
        <line class="cls-4" x1="817.74" y1="75.55" x2="838.35" y2="81.98"/>
        <line class="cls-4" x1="840.65" y1="88.58" x2="827.12" y2="105.77"/>
        <line class="cls-4" x1="861.64" y1="61.94" x2="848.13" y2="79.09"/>
        <line class="cls-4" x1="864.03" y1="103.06" x2="866.07" y2="105.06"/>
        <line class="cls-4" x1="850.75" y1="90.08" x2="860.65" y2="99.76"/>
        <line class="cls-4" x1="828.03" y1="67.87" x2="838.16" y2="77.78"/>
        <line class="cls-4" x1="822.69" y1="62.65" x2="824.35" y2="64.27"/>
        <line class="cls-4" x1="870.7" y1="77.68" x2="873.91" y2="76.93"/>
        <line class="cls-4" x1="852.75" y1="81.89" x2="866.51" y2="78.66"/>
        <line class="cls-4" x1="822.15" y1="89.07" x2="835.87" y2="85.85"/>
        <line class="cls-4" x1="814.85" y1="90.78" x2="817.53" y2="90.15"/>
        <line class="cls-4" x1="839.71" y1="110.88" x2="839.21" y2="113.74"/>
        <line class="cls-4" x1="842.84" y1="92.77" x2="840.43" y2="106.68"/>
        <line class="cls-4" x1="848.31" y1="61.14" x2="845.87" y2="75.2"/>
        <line class="cls-4" x1="849.19" y1="56.04" x2="849.12" y2="56.45"/>
        <line class="cls-4" x1="849.55" y1="53.97" x2="849.11" y2="56.47"/>
      </g>
      <path class="cls-2" d="M789.2,150.44c-.47.31-.94.63-1.42.92-.52.32-.68.68-.31,1.23.32.47.67.75,1.24.39,1.01-.63,2.02-1.27,3.03-1.89.2-.12.41-.34.67-.19.28.17.15.45.1.68-.25,1.17-.49,2.33-.78,3.49-.15.61,0,.94.64,1.07.63.13,1.09.14,1.24-.66.24-1.23.52-2.45.82-3.67.13-.52.45-.59.75-.13.67.99,1.3,1.99,1.95,3,.33.5.63.92,1.34.47.73-.48.61-.96.2-1.56-.63-.93-1.23-1.89-1.83-2.85-.12-.2-.33-.44-.06-.65.12-.09.36-.08.53-.04,1.1.23,2.2.49,3.31.73.62.14,1.2.35,1.41-.62.19-.88-.2-1.09-.92-1.22-1.05-.19-2.08-.45-3.12-.7-.28-.07-.7-.02-.73-.44-.03-.37.37-.46.61-.62.84-.56,1.69-1.08,2.53-1.64.51-.34,1.14-.6.59-1.44-.5-.77-.97-.55-1.56-.17-.94.62-1.89,1.23-2.85,1.82-.19.12-.43.35-.65.07-.09-.12-.07-.36-.04-.53.24-1.1.49-2.2.74-3.3.14-.63.33-1.19-.63-1.41-.9-.21-1.08.22-1.22.92-.21,1.11-.49,2.2-.75,3.3-.05.24-.08.52-.39.57-.31.05-.4-.25-.53-.44-.62-.94-1.22-1.9-1.82-2.85-.34-.53-.68-.86-1.36-.44-.67.41-.6.86-.25,1.41.51.79,1.02,1.58,1.5,2.39.21.36.74.76.5,1.12-.34.49-.92.05-1.38-.03-.93-.16-1.84-.4-2.75-.62-.57-.14-.95-.06-1.09.62-.13.65-.11,1.09.67,1.25,1.23.25,2.45.53,3.67.83.47.12.65.4.16.75-.56.4-1.15.76-1.73,1.14,0-.01-.02-.03-.03-.04Z"/>
      <g class="cls-5">
        <path class="cls-7" d="M723.78,200.69c1,1.35,1.36,3.03,1.36,4.66,0,1.64-.31,3.28-.81,4.85-.48,1.58-1.16,3.09-1.98,4.53-.41.72-.86,1.41-1.36,2.07-.49.67-1.04,1.29-1.65,1.86,1.32-1.02,2.39-2.35,3.28-3.77.89-1.42,1.58-2.97,2.1-4.57.48-1.61.8-3.28.74-4.98-.04-.84-.16-1.69-.43-2.49-.28-.8-.68-1.55-1.24-2.17Z"/>
        <path class="cls-1" d="M724.71,205.85c.08-1.58-.07-3.35-.36-3.44-.28-.1-1.49,1.19-2.42,2.48-.98,1.37,2.69,2.64,2.77.96Z"/>
        <path class="cls-1" d="M716.22,173.57c-3.11,8.95-1.22,26.9,7.73,30.01s21.56-9.81,24.67-18.76c3.11-8.95-1.63-18.72-10.57-21.83-8.95-3.11-18.72,1.63-21.83,10.57Z"/>
        <path class="cls-3" d="M716.55,176.89c-2.38,7.79.05,23.23,7.53,25.52,7.49,2.29-1.31-5.58,1.07-13.37,2.38-7.79,2.94-13.01-.11-17.2-4.67-6.42-6.11-2.74-8.5,5.05Z"/>
        <g>
          <path class="cls-8" d="M737.51,168.11s.04.03.06.04c.29.18.58.36.85.55.01,0,.03.02.04.03.84.55,1.98.33,2.56-.5.59-.85.38-2.01-.47-2.6-.34-.24-.7-.47-1.06-.68-.89-.53-2.03-.24-2.56.64-.52.86-.26,1.98.58,2.52Z"/>
          <path class="cls-8" d="M743.87,183.56s.04.03.06.04c.88.53,2.03.24,2.56-.64,2.51-4.19,1.05-10.93-1.91-13.51-.78-.68-1.96-.6-2.64.18-.68.78-.6,1.96.18,2.64,1.74,1.52,2.63,6.31,1.16,8.77-.52.86-.26,1.98.58,2.52Z"/>
        </g>
      </g>
      <g class="cls-5">
        <path class="cls-7" d="M783.38,98.03c1.02.38,1.81,1.16,2.39,2.04.58.89.99,1.88,1.28,2.91.3,1.02.47,2.08.53,3.15.03.53.03,1.07,0,1.6-.03.53-.11,1.07-.23,1.59.35-1.02.46-2.12.44-3.2-.02-1.09-.2-2.17-.48-3.21-.31-1.04-.73-2.06-1.36-2.95-.32-.44-.69-.85-1.11-1.19-.43-.33-.92-.6-1.44-.73Z"/>
        <path class="cls-1" d="M785.71,100.49c-.52-.88-1.23-1.78-1.41-1.74-.19.05-.39,1.17-.43,2.2-.04,1.09,2.39.48,1.84-.46Z"/>
        <path class="cls-1" d="M769.67,86.03c1.49,5.94,8.87,14.99,14.81,13.5s8.19-12.95,6.7-18.89c-1.49-5.94-7.51-9.55-13.45-8.06s-9.55,7.51-8.06,13.45Z"/>
        <path class="cls-3" d="M771.03,87.71c1.47,5.06,8.26,12.55,13.12,11.14,4.86-1.41-2.69-2.56-4.16-7.62-1.47-5.06-3.02-8.08-6.15-9.27-4.8-1.82-4.28.68-2.81,5.74Z"/>
        <g>
          <path class="cls-8" d="M779.26,75.53s.03,0,.05,0c.22,0,.44-.01.66,0,.01,0,.02,0,.03,0,.65,0,1.19-.52,1.21-1.18.02-.67-.51-1.22-1.18-1.24-.27,0-.54,0-.82,0-.67.03-1.19.59-1.16,1.26.03.65.56,1.16,1.21,1.16Z"/>
          <path class="cls-8" d="M788.18,81.64s.03,0,.05,0c.67-.03,1.19-.59,1.16-1.26-.12-3.16-3.3-6.28-5.82-6.63-.66-.09-1.27.37-1.36,1.03-.09.66.37,1.27,1.03,1.36,1.48.21,3.66,2.48,3.73,4.34.03.65.56,1.16,1.21,1.16Z"/>
        </g>
      </g>
    </g>
  </g>
</svg>