<?xml version="1.0" encoding="UTF-8"?>
<svg id="Layer_2" data-name="Layer 2" xmlns="http://www.w3.org/2000/svg" viewBox="0 0 298.92 395.03">
  <g id="Layer_1-2" data-name="Layer 1">
    <g>
      <path d="m288.41,132.03c3.19-5.12,6.42-10.06,8.29-15.84,1.61-5.02,2.31-10.32,2.18-15.56-.18-7.87-2.18-15.67-5.49-22.82-.65-1.4-1.29-3.16-2.38-4.31-.49-.51-1.32-.46-1.84,0-7.38,6.7-16.37,11.51-25.13,16.28-4.51,2.47-9.07,4.87-13.63,7.21-1.5.76-3,1.53-4.51,2.29-.52.25-1.42.51-1.84.92.44-.43.88-.1,0-.18-.73-.05-1.5,0-2.23,0h-61.8l1.29,1.27v-45.67c0-.53.26-1.83,0-2.32.26.46-.39.87-.03.36.18-.25.31-.61.47-.89,3.47-6.72,7.07-13.4,10.83-19.97,4.61-8.1,9.3-16.35,15.72-23.21.47-.48.52-1.32,0-1.81-.91-.84-2.28-1.35-3.37-1.88-2.88-1.38-5.88-2.5-8.94-3.41-9.25-2.75-19.22-3.36-28.6-.99-6.86,1.73-12.61,5.22-18.6,8.84h1.3c-5.21-3.13-10.23-6.32-16.11-8.15C128.9.6,123.52-.09,118.18,0c-8,.18-15.93,2.14-23.21,5.4-1.42.64-3.21,1.27-4.38,2.34-.52.48-.47,1.3,0,1.81,5.6,5.99,9.77,12.99,13.88,20.05,4.12,7.06,8.13,14.47,11.97,21.8.36.71.67,1.53,1.14,2.19.39.53-.26.15,0-.31-.08.15,0,.59,0,.76v47.23l1.29-1.27h-51.39c-4.2,0-8.47-.25-12.67,0-.91.05-.39-.25,0,.18-.13-.13-.41-.2-.57-.28-1.09-.59-2.2-1.09-3.29-1.66-4.14-2.11-8.29-4.25-12.38-6.44-9.97-5.35-20.44-10.67-28.83-18.29-.49-.46-1.35-.51-1.84,0-.85.89-1.37,2.24-1.92,3.31-1.4,2.83-2.54,5.78-3.47,8.79-2.8,9.09-3.42,18.9-1.01,28.12,1.76,6.75,5.31,12.41,8.99,18.29v-1.27c-3.19,5.12-6.42,10.06-8.29,15.84C.61,151.6-.09,156.89,0,162.14c.18,7.87,2.18,15.66,5.49,22.82.65,1.4,1.3,3.16,2.38,4.3.49.51,1.32.46,1.84,0,7.38-6.7,16.37-11.51,25.13-16.28,4.51-2.47,9.07-4.86,13.62-7.21,1.5-.76,3-1.53,4.51-2.29.52-.25,1.42-.51,1.84-.92-.44.43-.88.1,0,.18.73.05,1.5,0,2.23,0h61.8l-1.3-1.27v174.79c0,1.63-.21,3.41,0,5.02.1.76-.13.1.16-.13-.18.15-.31.59-.41.82-1.74,3.34-3.5,6.67-5.28,9.99-5.41,10.01-10.88,20.33-17.8,29.42-1.11,1.45-2.36,2.73-3.63,4.08-.47.48-.52,1.32,0,1.81.91.84,2.28,1.35,3.37,1.89,2.88,1.37,5.88,2.5,8.94,3.41,9.25,2.75,19.22,3.36,28.6.99,6.86-1.73,12.61-5.22,18.6-8.84h-1.29c5.21,3.13,10.23,6.32,16.11,8.15,5.1,1.58,10.49,2.27,15.83,2.14,8-.18,15.93-2.14,23.21-5.4,1.42-.64,3.21-1.27,4.38-2.34.52-.48.47-1.3,0-1.81-7.17-7.67-12.3-17.09-17.38-26.19-2.51-4.48-4.97-9.02-7.36-13.58-.67-1.27-1.35-2.55-1.99-3.85-.1-.2-.18-.54-.36-.69.21.18.08.89.16.08.34-4.25,0-8.69,0-12.94v-162.21c0-1.32.18-2.78,0-4.08v-.51l-1.29,1.27h51.37c4.2,0,8.47.25,12.67,0,.91-.05.39.25,0-.18.13.13.41.2.57.28,1.09.59,2.2,1.09,3.29,1.66,4.14,2.11,8.29,4.25,12.38,6.44,9.97,5.35,20.44,10.67,28.83,18.29.49.46,1.35.51,1.84,0,.86-.89,1.37-2.24,1.92-3.31,1.4-2.83,2.54-5.78,3.47-8.79,2.8-9.09,3.42-18.9,1.01-28.12-1.76-6.75-5.31-12.41-8.99-18.29-.88-1.4-3.11-.13-2.23,1.27,3.08,4.94,6.22,9.65,8.03,15.23,1.55,4.81,2.23,9.83,2.1,14.88-.18,7.44-2.05,14.9-5.21,21.65-.44.94-.91,1.89-1.42,2.8-.13.23-.34.51-.44.76-.16.38-.13.15-.05.1h1.84c-7.46-6.75-16.45-11.64-25.26-16.48-4.58-2.52-9.22-4.94-13.88-7.34-2.1-1.07-4.25-2.47-6.48-3.26-.88-.31-1.86-.18-2.8-.18h-62.53c-.7,0-1.29.59-1.29,1.27v176.04c0,2.09-.29,3.97.67,5.83,1.76,3.41,3.57,6.8,5.39,10.19,5.47,10.09,10.96,20.48,18,29.6,1.14,1.45,2.38,2.75,3.65,4.1v-1.81s.36-.13,0,0c-.21.08-.41.26-.6.36-.72.41-1.5.79-2.25,1.15-2.69,1.27-5.47,2.32-8.34,3.16-8.91,2.65-18.49,3.26-27.53.92-6.53-1.68-11.97-5.07-17.67-8.51-.39-.23-.93-.23-1.29,0-5.03,3.03-9.82,6.11-15.49,7.9-4.9,1.53-10,2.19-15.13,2.06-7.56-.18-15.15-2.01-22.02-5.12-.96-.43-1.92-.89-2.85-1.4-.23-.13-.52-.33-.78-.43-.39-.15-.16-.13-.1-.05v1.81c7.25-7.74,12.43-17.17,17.59-26.34,2.54-4.53,5.03-9.09,7.43-13.7.86-1.66,2.49-3.72,2.69-5.6.16-1.43,0-2.95,0-4.38v-139.74c0-11.82.31-23.66,0-35.48v-.51c0-.69-.6-1.27-1.3-1.27h-52.38c-3.96,0-8.08-.31-12.04,0-1.68.13-3.45,1.43-4.92,2.17-4.25,2.14-8.47,4.36-12.64,6.6-10.05,5.4-20.54,10.83-28.99,18.49h1.84s.13.36,0,0c-.08-.2-.26-.41-.36-.59-.41-.71-.8-1.48-1.17-2.22-1.3-2.65-2.36-5.37-3.21-8.2-2.69-8.76-3.32-18.19-.93-27.08,1.71-6.42,5.15-11.77,8.65-17.37.23-.38.23-.92,0-1.27-3.08-4.94-6.22-9.65-8-15.23-1.55-4.81-2.23-9.83-2.1-14.88.18-7.44,2.05-14.9,5.21-21.65.44-.94.91-1.89,1.42-2.8.13-.23.34-.51.44-.76.16-.38.13-.15.05-.1h-1.84c7.46,6.75,16.45,11.64,25.26,16.48,4.58,2.52,9.22,4.94,13.88,7.34,2.1,1.07,4.25,2.47,6.48,3.26.88.31,1.87.18,2.8.18h62.53c.7,0,1.3-.59,1.3-1.27v-46.16c0-1.45-.08-2.32-.75-3.62-3.55-6.88-7.23-13.68-11.06-20.4-4.66-8.18-9.43-16.43-15.9-23.36v1.81c-.36.13,0,0,0,0,.21-.08.41-.25.6-.36.73-.41,1.5-.79,2.25-1.15,2.69-1.27,5.47-2.32,8.34-3.16,8.91-2.65,18.49-3.26,27.53-.92,6.53,1.68,11.97,5.07,17.67,8.51.39.23.93.23,1.29,0,5.03-3.03,9.82-6.11,15.49-7.9,4.9-1.53,10-2.19,15.13-2.06,7.56.18,15.15,2.01,22.02,5.12.96.43,1.92.89,2.85,1.4.23.13.52.33.78.43.39.15.16.13.1.05v-1.81c-5.65,6.04-9.92,13.07-14.07,20.17-4.14,7.11-8.29,14.7-12.17,22.19-.6,1.15-1.37,2.24-1.48,3.54-.23,3.18,0,6.5,0,9.7v37.93c0,.69.6,1.27,1.3,1.27h52.32c3.96,0,8.08.31,12.04,0,1.68-.13,3.45-1.43,4.92-2.17,4.25-2.14,8.47-4.36,12.64-6.6,10.05-5.4,20.52-10.83,28.98-18.49h-1.84c-.13-.36,0,0,0,0,.08.2.26.41.36.59.41.71.8,1.48,1.17,2.22,1.3,2.65,2.36,5.37,3.21,8.2,2.69,8.76,3.32,18.19.93,27.08-1.71,6.42-5.15,11.77-8.65,17.37-.88,1.4,1.37,2.67,2.23,1.27Z"/>
      <path d="m179.49,387.37c-6.35-.05-12.56-1.38-18.24-4.2-3.86-1.94-7.46-4.41-11.16-6.62-.39-.23-.93-.23-1.29,0-6.86,4.13-13.37,8.51-21.42,10.09-9.17,1.78-18.73.26-27.3-3.18l.78,1.86c8-10.75,14.35-22.77,20.57-34.57.91-1.73,1.81-3.46,2.72-5.22.44-.84,1.04-1.71,1.16-2.65.1-.71,0-1.53,0-2.24v-154.18c0-9.86.29-19.79,0-29.65v-.43c0-.69-.6-1.27-1.29-1.27H58.06c-1.61,0-3.37-.18-4.97,0-.91.1-1.71.64-2.51,1.04-1.53.76-3.06,1.53-4.58,2.29-12.33,6.27-24.92,12.66-36.13,20.73l1.89.76c-3.03-7.34-4.56-15.28-3.76-23.21.54-5.37,2.23-10.6,4.92-15.28,1.84-3.21,3.94-6.27,5.88-9.42.23-.38.23-.89,0-1.27-1.89-3.06-3.91-6.01-5.72-9.12-2.77-4.79-4.56-10.11-5.1-15.59-.8-7.92.73-15.87,3.76-23.21l-1.89.76c10.31,7.41,21.78,13.35,33.05,19.16,3.03,1.55,6.09,3.46,9.3,4.69,1.22.46,2.75.23,4.01.23h67.81c.7,0,1.29-.59,1.29-1.27v-52.96c0-1.48-.36-2.34-1.06-3.69-1.55-3.03-3.13-6.01-4.74-9.02-5.67-10.57-11.47-21.32-18.68-31l-.78,1.86c8.6-3.41,18.13-4.97,27.3-3.16,8.06,1.58,14.53,5.96,21.42,10.09.39.23.91.23,1.3,0,6.86-4.13,13.37-8.51,21.42-10.09,9.17-1.78,18.73-.25,27.3,3.18l-.78-1.86c-6.48,8.71-11.79,18.31-16.94,27.82-1.92,3.52-3.81,7.08-5.65,10.65-.7,1.35-1.81,2.88-1.86,4.38-.39,13.04,0,26.16,0,39.2v14.65c0,.69.6,1.27,1.3,1.27h65.97c1.61,0,3.37.18,4.97,0,.91-.1,1.71-.64,2.51-1.04,1.53-.76,3.06-1.53,4.58-2.29,12.33-6.27,24.92-12.66,36.13-20.73l-1.89-.76c3.03,7.34,4.56,15.28,3.76,23.21-.54,5.37-2.23,10.6-4.92,15.28-1.84,3.21-3.94,6.29-5.91,9.42-.23.38-.23.92,0,1.27,1.89,3.03,3.91,6.01,5.72,9.12,2.77,4.79,4.56,10.11,5.1,15.61.8,7.92-.72,15.87-3.76,23.21l1.89-.76c-10.28-7.41-21.78-13.35-33.05-19.16-3.03-1.55-6.11-3.46-9.3-4.69-1.22-.46-2.75-.23-4.02-.23h-67.81c-.7,0-1.3.59-1.3,1.27v185.82c0,1.27.62,2.27,1.22,3.41,5.54,10.8,11.37,21.52,17.87,31.82,1.71,2.7,3.47,5.35,5.36,7.9l.78-1.86c-6.17,2.45-12.67,3.87-19.32,3.92-1.66,0-1.66,2.57,0,2.55,6.89-.05,13.65-1.48,20.02-4,.7-.28,1.32-1.15.78-1.86-8-10.75-14.35-22.77-20.57-34.57-.91-1.73-1.81-3.46-2.72-5.22-.26-.48-.47-1.15-.8-1.58-.44-.56-.05.51,0,.18.1-.82,0-1.68,0-2.5v-180.29c0-1.07.18-2.32,0-3.36v-.41l-1.3,1.27h65.56c1.76,0,3.55.1,5.28,0,.57-.03-.44-.26-.18-.05.41.33,1.09.54,1.58.79,1.5.74,3,1.5,4.51,2.27,12.33,6.27,24.92,12.66,36.13,20.73.75.54,1.63-.08,1.89-.76,3.19-7.69,4.74-16.18,3.81-24.45-.6-5.27-2.18-10.37-4.69-15.05-1.92-3.57-4.27-6.93-6.42-10.37v1.27c2.12-3.44,4.51-6.8,6.42-10.37,2.51-4.69,4.09-9.78,4.69-15.05.96-8.28-.62-16.79-3.81-24.48-.29-.69-1.17-1.3-1.89-.76-10.18,7.34-21.53,13.22-32.69,18.98-1.97,1.02-3.96,2.04-5.96,3.03-1.06.54-2.49.99-3.45,1.71-.65.48.67,0,.08,0h-70.87l1.3,1.27v-52.75c0-.46.05-.97,0-1.43v-.1c0,.87-.08.38.18-.08.21-.38.39-.79.6-1.17,1.55-3.03,3.13-6.04,4.77-9.04,5.65-10.52,11.42-21.19,18.57-30.82.54-.74-.08-1.6-.78-1.86-8.83-3.52-18.6-4.99-28.03-3.29-8.55,1.53-15.41,6.11-22.66,10.47h1.3c-7.28-4.36-14.14-8.94-22.66-10.47-9.43-1.68-19.19-.23-28.03,3.29-.7.28-1.32,1.15-.78,1.86,6.37,8.58,11.61,18.03,16.71,27.38,1.99,3.62,3.94,7.29,5.83,10.95.44.87.88,1.71,1.32,2.57.26.51.26.99.26.2v.61c-.21,5.17,0,10.39,0,15.59v38.11l1.3-1.27H58.48c-1.76,0-3.55-.1-5.28,0-.57.03.44.26.18.05-.41-.33-1.09-.53-1.58-.79-1.5-.74-3-1.5-4.51-2.27-12.33-6.27-24.89-12.66-36.13-20.73-.75-.53-1.63.08-1.89.76-3.19,7.69-4.74,16.17-3.81,24.48.6,5.27,2.18,10.37,4.69,15.05,1.92,3.57,4.27,6.93,6.4,10.37v-1.27c-2.12,3.44-4.51,6.8-6.4,10.34-2.51,4.69-4.09,9.78-4.69,15.05-.96,8.28.62,16.79,3.81,24.48.28.69,1.17,1.3,1.89.76,10.18-7.34,21.53-13.22,32.69-18.98,1.97-1.02,3.96-2.04,5.96-3.03,1.06-.54,2.49-.99,3.45-1.71.65-.48-.67,0-.08,0h70.87l-1.29-1.27v186.46c0,.25.49-.84,0-.18-.36.48-.62,1.2-.88,1.73-5.57,10.85-11.42,21.63-17.98,31.94-1.66,2.62-3.39,5.2-5.23,7.69-.54.74.08,1.61.78,1.86,8.83,3.52,18.6,4.99,28.03,3.29,8.55-1.53,15.41-6.09,22.66-10.47h-1.3c4.07,2.45,8.03,5.2,12.36,7.18,5.78,2.65,11.99,3.95,18.34,4,1.66,0,1.66-2.55,0-2.55h-.03Z"/>
      <path d="m120.77,375.88c6.68-11.33,12.69-23,14.3-26.16l1.92-3.77v-202.3H49.9l-3.83,1.89c-3.21,1.58-15.08,7.49-26.58,14.06.21-4.51,1.45-9.37,4.53-14.09,1.09-1.66,2.1-3.26,3.08-4.84l5.75-9.27-5.75-9.3c-.98-1.58-1.99-3.16-3.08-4.84-3.08-4.71-4.33-9.55-4.53-14.09,11.5,6.55,23.36,12.46,26.58,14.06l3.83,1.89h87.09V49.07l-1.92-3.77c-1.61-3.16-7.62-14.82-14.3-26.16,5.21.2,9.89,1.68,14.32,4.48,1.71,1.07,3.34,2.06,4.92,3.03l9.43,5.65,9.43-5.65c1.58-.94,3.21-1.94,4.92-3.03,4.43-2.8,9.12-4.25,14.32-4.48-6.68,11.34-12.69,23-14.3,26.16l-1.92,3.77v70.05h87.09l3.83-1.89c3.21-1.58,15.08-7.49,26.58-14.06-.21,4.51-1.45,9.37-4.53,14.09-1.09,1.68-2.1,3.29-3.06,4.84l-5.78,9.3,5.78,9.3c.96,1.55,1.97,3.13,3.06,4.81,3.08,4.71,4.33,9.55,4.53,14.09-11.5-6.55-23.36-12.46-26.58-14.06l-3.83-1.89h-87.06v202.3l1.92,3.77c1.61,3.16,7.62,14.83,14.3,26.16-5.21-.2-9.89-1.68-14.32-4.48-1.71-1.07-3.32-2.06-4.9-3.01l-9.45-5.68-9.45,5.68c-1.58.94-3.21,1.94-4.9,3.01-4.43,2.8-9.12,4.25-14.32,4.48h-.03Z"/>
      <path d="m121.88,376.52c4.53-7.69,8.81-15.54,12.9-23.46.91-1.73,1.79-3.46,2.67-5.22.34-.69.75-1.3.83-2.06.26-2.7,0-5.55,0-8.23v-164.86c0-9.53.29-19.1,0-28.66v-.41c0-.69-.6-1.27-1.3-1.27h-40.1c-15.41,0-30.85-.18-46.29,0-.65,0-1.01.05-1.63.31-1.92.84-3.81,1.86-5.67,2.8-8.26,4.13-16.42,8.43-24.45,12.99l1.94,1.09c.23-4,1.24-7.9,3.16-11.46,1.37-2.55,3.08-4.94,4.61-7.41,1.79-2.9,3.6-5.81,5.39-8.69.23-.38.23-.89,0-1.27-1.79-2.9-3.6-5.81-5.39-8.71-1.48-2.37-3.11-4.69-4.46-7.13-2.02-3.62-3.08-7.62-3.32-11.74l-1.94,1.09c7.49,4.25,15.1,8.28,22.79,12.15,1.68.84,3.39,1.68,5.08,2.52,1.04.51,2.18,1.32,3.37,1.43,1.5.15,3.06,0,4.56,0h82.34c.7,0,1.3-.59,1.3-1.27V52.77c0-1.17.16-2.45,0-3.62-.16-1.32-1.19-2.7-1.79-3.87-.85-1.71-1.74-3.39-2.62-5.07-3.83-7.31-7.8-14.57-11.99-21.68l-1.11,1.91c4.14.2,8.16,1.25,11.81,3.21,2.54,1.35,4.92,3.01,7.38,4.48,2.95,1.76,5.91,3.54,8.86,5.3.39.23.91.23,1.3,0,2.95-1.76,5.91-3.54,8.86-5.3,2.38-1.43,4.69-2.98,7.12-4.33,3.73-2.06,7.82-3.13,12.07-3.36l-1.11-1.91c-3.83,6.52-7.49,13.17-11.04,19.87-1.71,3.23-3.76,6.55-5.13,9.93-.39.97-.23,2.04-.23,3.06v67.76c0,.69.6,1.27,1.3,1.27h40.1c15.41,0,30.85.18,46.29,0,.65,0,1.01-.05,1.63-.31,1.92-.84,3.81-1.86,5.67-2.8,8.26-4.13,16.42-8.43,24.45-12.99l-1.94-1.1c-.23,4-1.24,7.9-3.16,11.46-1.37,2.55-3.08,4.94-4.61,7.41-1.81,2.9-3.6,5.81-5.41,8.71-.23.38-.23.92,0,1.27,1.81,2.9,3.63,5.81,5.41,8.71,1.48,2.37,3.08,4.66,4.45,7.08,2.02,3.62,3.08,7.62,3.34,11.74l1.94-1.09c-7.49-4.25-15.1-8.28-22.79-12.15-1.68-.84-3.39-1.68-5.08-2.52-1.04-.51-2.18-1.32-3.37-1.43-1.5-.15-3.06,0-4.56,0h-82.35c-.7,0-1.3.59-1.3,1.27v201.26c0,1.25.29,1.91.91,3.11,2.69,5.27,5.44,10.55,8.26,15.74,2.33,4.28,4.74,8.56,7.23,12.76l1.11-1.91c-4.14-.2-8.13-1.25-11.81-3.21-2.54-1.35-4.92-2.98-7.38-4.46-2.95-1.78-5.91-3.54-8.86-5.32-.39-.23-.93-.23-1.3,0-2.95,1.78-5.91,3.57-8.86,5.32-2.36,1.43-4.66,2.98-7.1,4.3-3.73,2.06-7.82,3.13-12.07,3.36-1.66.08-1.66,2.62,0,2.55,3.99-.2,7.85-1.07,11.47-2.75,3.06-1.4,5.85-3.39,8.73-5.09,3.06-1.83,6.09-3.67,9.14-5.5h-1.29c3.06,1.83,6.09,3.67,9.14,5.5,2.8,1.68,5.49,3.59,8.44,4.99,3.7,1.76,7.64,2.65,11.73,2.88,1.01.05,1.58-1.12,1.11-1.91-4.48-7.64-8.73-15.41-12.82-23.28-.93-1.78-1.84-3.59-2.75-5.37-.05-.1-.52-1.2-.6-1.2-.1,0,.08.71.13.54v-.23c.21-.84,0-1.99,0-2.83v-195.73c0-1.02.16-2.17,0-3.16v-.41l-1.29,1.27h86.18c.21,0,.49.05.7,0,.52-.15-.65-.38-.18-.03,1.61,1.17,3.89,1.91,5.67,2.8,8.26,4.13,16.42,8.43,24.45,12.99.8.46,1.99-.13,1.94-1.1-.21-3.82-1.06-7.54-2.67-11.03-1.43-3.11-3.47-5.91-5.28-8.81-1.81-2.9-3.73-5.99-5.6-8.99v1.27c1.86-3.01,3.73-5.99,5.6-8.99,1.76-2.83,3.76-5.55,5.15-8.56,1.68-3.57,2.56-7.39,2.8-11.31.05-.99-1.14-1.55-1.94-1.1-7.49,4.25-15.1,8.28-22.77,12.15-1.68.84-3.39,1.68-5.1,2.52-.62.31-2.12.71-2.51,1.25.44-.61.85-.03.39-.15-1.43-.36-3.47,0-4.92,0h-81.9l1.29,1.27V50.5c0-.28.16-1.07,0-1.3-.05-.1-.39.82.08.05.54-.89.96-1.88,1.42-2.8.86-1.66,1.68-3.31,2.56-4.94,3.83-7.31,7.8-14.57,11.99-21.68.47-.79-.13-1.96-1.11-1.91-3.99.2-7.85,1.07-11.48,2.75-3.06,1.4-5.85,3.39-8.73,5.12-3.03,1.83-6.09,3.64-9.12,5.48h1.3c-3.03-1.83-6.09-3.64-9.12-5.48-2.8-1.68-5.52-3.59-8.47-4.99-3.7-1.76-7.64-2.65-11.76-2.88-1.01-.05-1.58,1.12-1.11,1.91,3.81,6.47,7.41,13.02,10.91,19.64,1.04,1.99,2.07,3.95,3.08,5.94.67,1.3,1.19,2.9,2.07,4.05.39.51.13-.51-.03-.25-.05.1,0,.38,0,.48-.03.66,0,1.32,0,1.99v67.48l1.3-1.27H50.78c-.21,0-.49-.05-.7,0-.52.15.65.38.18.03-1.61-1.17-3.89-1.91-5.67-2.8-8.26-4.13-16.42-8.43-24.45-12.99-.8-.46-1.99.13-1.94,1.1.21,3.82,1.06,7.54,2.67,11.03,1.42,3.11,3.5,5.93,5.31,8.84,1.81,2.9,3.7,5.99,5.57,8.99v-1.27c-1.87,2.98-3.7,5.99-5.57,8.97-1.76,2.83-3.76,5.55-5.18,8.56-1.68,3.59-2.56,7.39-2.8,11.31-.05.99,1.14,1.55,1.94,1.1,7.49-4.25,15.1-8.28,22.77-12.15,1.68-.84,3.39-1.68,5.08-2.52.62-.31,2.12-.71,2.51-1.25-.44.61-.85.03-.39.15,1.42.36,3.47,0,4.92,0h81.9l-1.29-1.27v201.13c0,.28-.08.69,0,.97v.18c0,.08.13-.56.16-.59-.34.28-.6,1.15-.78,1.53-2.67,5.22-5.39,10.44-8.19,15.59-2.33,4.28-4.74,8.56-7.23,12.76-.83,1.43,1.4,2.7,2.23,1.27h.05Z"/>
    </g>
  </g>
</svg>