<?xml version="1.0" encoding="UTF-8"?>
<svg id="Layer_2" data-name="Layer 2" xmlns="http://www.w3.org/2000/svg" viewBox="0 0 21.84 21.84">
  <defs>
    <style>
      .cls-1 {
        fill: #f3cf7a;
      }
    </style>
  </defs>
  <g id="facebook">
    <g>
      <path class="cls-1" d="m10.53,21.84H1.95c-1.07,0-1.95-.87-1.95-1.95V5.85c0-.22.17-.39.39-.39s.39.17.39.39v14.04c0,.65.52,1.17,1.17,1.17h8.58c.22,0,.39.17.39.39s-.17.39-.39.39Zm9.36,0h-4.68c-.22,0-.39-.17-.39-.39v-7.8c0-.22.17-.39.39-.39h2.39l.29-2.34h-2.68c-.22,0-.39-.17-.39-.39v-3.12c0-.65.52-1.17,1.17-1.17h1.95v-2.34h-2.73c-1.51,0-2.73,1.22-2.73,2.73v3.9c0,.22-.17.39-.39.39h-2.73v2.34h2.73c.22,0,.39.17.39.39v7.8c0,.22-.17.39-.39.39s-.39-.17-.39-.39v-7.41h-2.73c-.22,0-.39-.17-.39-.39v-3.12c0-.22.17-.39.39-.39h2.73v-3.51c0-1.94,1.57-3.51,3.51-3.51h3.12c.22,0,.39.17.39.39v3.12c0,.22-.17.39-.39.39h-2.34c-.22,0-.39.18-.39.39v2.73h2.73c.11,0,.22.05.29.13.07.08.11.2.09.31l-.39,3.12c-.02.2-.19.34-.39.34h-2.34v7.02h4.29c.65,0,1.17-.52,1.17-1.17V1.95c0-.65-.52-1.17-1.17-1.17H1.95c-.65,0-1.17.52-1.17,1.17v.78c0,.22-.17.39-.39.39s-.39-.17-.39-.39v-.78C0,.87.88,0,1.95,0h17.94c1.07,0,1.95.87,1.95,1.95v17.94c0,1.08-.88,1.95-1.95,1.95Z"/>
      <path class="cls-1" d="m.78,4.29c0,.21-.18.39-.39.39H.39c-.21,0-.39-.18-.39-.39h0c0-.21.18-.39.39-.39H.39c.21,0,.39.18.39.39h0Z"/>
    </g>
  </g>
</svg>