<?xml version="1.0" encoding="UTF-8"?>
<svg id="Layer_2" data-name="Layer 2" xmlns="http://www.w3.org/2000/svg" viewBox="0 0 30 22">
  <defs>
    <style>
      .cls-1 {
        fill: #f3cf7a;
      }
    </style>
  </defs>
  <g id="facebook">
    <g>
      <path class="cls-1" d="m26,22c-.28,0-.5-.22-.5-.5v-13c0-.28.22-.5.5-.5s.5.22.5.5v13c0,.28-.22.5-.5.5Zm-22,0c-.28,0-.5-.22-.5-.5v-13c0-.28.22-.5.5-.5s.5.22.5.5v13c0,.28-.22.5-.5.5Zm11-12.57c-.1,0-.2-.03-.28-.09L2.55,1.02c-.23-.16-.29-.47-.13-.7s.47-.29.7-.13l11.88,8.13,8.96-6.13c.23-.16.54-.1.69.13.16.23.1.54-.13.7l-9.24,6.32c-.09.06-.18.09-.28.09Z"/>
      <path class="cls-1" d="m27.5,22H2.5c-1.38,0-2.5-1.12-2.5-2.5V2.5c0-.28.22-.5.5-.5s.5.22.5.5v17c0,.83.67,1.5,1.5,1.5h25c.83,0,1.5-.67,1.5-1.5V2.5c0-.83-.67-1.5-1.5-1.5-.28,0-.5-.22-.5-.5s.22-.5.5-.5c1.38,0,2.5,1.12,2.5,2.5v17c0,1.38-1.12,2.5-2.5,2.5Z"/>
      <path class="cls-1" d="m15,14c-.1,0-.2-.03-.28-.09L1.07,4.5c-.67-.46-1.07-1.22-1.07-2.03C0,1.11,1.11,0,2.47,0h25.07c1.36,0,2.47,1.11,2.47,2.47,0,.81-.4,1.57-1.07,2.03l-13.65,9.41c-.09.06-.18.09-.28.09ZM2.47,1c-.81,0-1.47.66-1.47,1.47,0,.48.24.93.63,1.21l13.37,9.22L28.37,3.67c.4-.27.63-.72.63-1.21,0-.81-.66-1.47-1.47-1.47H2.47Z"/>
    </g>
  </g>
</svg>