<?xml version="1.0" encoding="utf-8"?>
<!-- Generator: Adobe Illustrator 27.2.0, SVG Export Plug-In . SVG Version: 6.00 Build 0)  -->
<svg version="1.1" id="Layer_1" xmlns="http://www.w3.org/2000/svg" xmlns:xlink="http://www.w3.org/1999/xlink" x="0px" y="0px"
	 viewBox="0 0 122.9 92.9" style="enable-background:new 0 0 122.9 92.9;" xml:space="preserve">
<style type="text/css">
	.st0{fill:#6F0B20;}
</style>
<path class="st0" d="M20.1,83.6l11.5-10.2c0.5-0.5,1.2-0.7,1.9-0.7h27.8c0.5,0,0.9-0.4,0.9-0.9c0,0,0,0,0,0v-5.8H68v5.8
	c0,3.7-3,6.7-6.7,6.7H34.6L19.3,92.1c-1.1,1.1-2.9,1.1-4.1,0c-0.5-0.5-0.8-1.2-0.8-2V78.4H6.7c-3.7,0-6.7-3-6.7-6.7V28.6
	c0-3.7,3-6.6,6.7-6.7h36.7v5.8H6.7c-0.5,0-0.9,0.4-0.9,0.9v43.1c0,0.2,0.1,0.5,0.3,0.7c0.2,0.2,0.4,0.3,0.7,0.3h10.6
	c1.6,0,2.9,1.3,2.9,2.9C20.2,75.5,20.2,83.6,20.1,83.6z M103.6,70.2L88.3,56.5H61.5c-3.7,0-6.7-3-6.7-6.7V6.7c0-1.8,0.7-3.5,2-4.7
	l0.2-0.2C58.3,0.7,59.9,0,61.5,0h54.7c1.8,0,3.5,0.7,4.7,2l0.2,0.2c1.1,1.2,1.8,2.8,1.8,4.5v43.1c0,3.7-3,6.7-6.7,6.7h-7.7v11.6
	c0,1.6-1.3,2.9-2.9,2.8C104.8,71,104.1,70.7,103.6,70.2L103.6,70.2z M91.3,51.5l11.5,10.2v-8.1c0-1.6,1.3-2.9,2.9-2.9h10.6
	c0.2,0,0.5-0.1,0.7-0.3c0.2-0.2,0.3-0.4,0.3-0.7V6.7c0-0.2-0.1-0.4-0.2-0.6L116.8,6c-0.2-0.2-0.4-0.3-0.7-0.3H61.5
	c-0.2,0-0.4,0.1-0.5,0.3h-0.1c-0.2,0.2-0.3,0.4-0.3,0.7v43.2c0,0.5,0.4,0.9,0.9,0.9c0,0,0,0,0,0h27.8C90.1,50.8,90.7,51,91.3,51.5z"
	/>
<g>
	<path class="st0" d="M66.8,40.7V13.4h3.8v27.3H66.8z M68.6,17v-3.6h15.7V17H68.6z M68.6,29v-3.6h13.6V29H68.6z M68.6,40.7v-3.6
		h15.7v3.6H68.6z"/>
	<path class="st0" d="M89.8,40.7V13.4h3.5l13.4,21.1l-0.5,0.5V13.4h3.8v27.3h-3.5L93.1,19.9l0.5-0.5v21.3H89.8z"/>
</g>
<g>
	<path class="st0" d="M14.1,62.8V35.5h3.8v27.3H14.1z M16,39.1v-3.6h14.9v3.6H16z M16.1,62.8v-3.6h8.7c1.3,0,2.3-0.4,3.1-1.2
		c0.7-0.8,1.1-1.9,1.1-3.3c0-1.5-0.4-2.6-1.1-3.4c-0.7-0.8-1.7-1.2-3.1-1.2h-8.7v-3.6h8.6c1.7,0,3.2,0.3,4.4,1
		c1.2,0.6,2.2,1.6,2.8,2.8c0.6,1.2,1,2.7,1,4.4c0,1.7-0.3,3.2-1,4.4c-0.6,1.2-1.6,2.1-2.8,2.8c-1.2,0.6-2.7,1-4.4,1H16.1z"/>
	<path class="st0" d="M38.6,62.8V35.5h3.8v27.3H38.6z M40.5,39.1v-3.6h13.4v3.6H40.5z"/>
</g>
</svg>
