<?xml version="1.0" encoding="UTF-8"?>
<svg id="Layer_2" data-name="Layer 2" xmlns="http://www.w3.org/2000/svg" viewBox="0 0 163.83 163.83">
  <defs>
    <style>
      .cls-1 {
        fill: #6f0d21;
      }
    </style>
  </defs>
  <g id="Layer_1-2" data-name="Layer 1">
    <g>
      <path class="cls-1" d="m81.91,0C36.67,0,0,36.67,0,81.91s36.67,81.91,81.91,81.91,81.91-36.67,81.91-81.91S127.16,0,81.91,0Zm0,151.77c-38.58,0-69.86-31.28-69.86-69.86S43.33,12.06,81.91,12.06s69.86,31.28,69.86,69.86-31.28,69.86-69.86,69.86Z"/>
      <path class="cls-1" d="m105.92,77.57l-39.86-39.86c-2.25-2.25-5.89-2.25-8.14,0-2.25,2.25-2.25,5.89,0,8.14l36.06,36.06-36.06,36.06c-2.25,2.25-2.25,5.89,0,8.14s5.89,2.25,8.14,0l39.86-39.86c1.2-1.2,1.75-2.78,1.67-4.35.08-1.56-.48-3.15-1.67-4.35Z"/>
    </g>
  </g>
</svg>