<?xml version="1.0" encoding="UTF-8"?>
<svg id="Layer_2" data-name="Layer 2" xmlns="http://www.w3.org/2000/svg" viewBox="0 0 702.77 648.1">
  <defs>
    <style>
      .cls-1 {
        fill: #f3cf7a;
      }

      .cls-2 {
        fill: #f8eacb;
      }

      .cls-3 {
        fill: #f2f2f2;
      }
    </style>
  </defs>
  <g id="Layer_1-2" data-name="Layer 1">
    <g>
      <path class="cls-1" d="m400.49,1.51l-25.45,6.56L61.54,88.92l-25.45,6.56c-12.35,3.2-22.93,11.17-29.41,22.16C.2,128.63-1.66,141.74,1.51,154.1l110.34,427.88c3.2,12.35,11.17,22.93,22.16,29.41,10.99,6.48,24.1,8.34,36.46,5.17l.07-.02,364.27-93.94.07-.02c12.35-3.2,22.93-11.17,29.41-22.16,6.48-10.99,8.34-24.1,5.17-36.46L459.11,36.1c-3.2-12.35-11.17-22.93-22.16-29.41-10.99-6.48-24.1-8.34-36.46-5.17Z"/>
      <path class="cls-2" d="m403.95,14.93l-30.14,7.77L69.69,101.13l-30.14,7.77c-8.8,2.28-16.33,7.95-20.95,15.78-4.62,7.83-5.94,17.16-3.68,25.96l110.34,427.88c2.28,8.8,7.95,16.33,15.78,20.95,7.83,4.62,17.16,5.94,25.96,3.68l.07-.02,364.26-93.94.07-.02c8.8-2.28,16.33-7.95,20.94-15.78,4.62-7.83,5.94-17.16,3.68-25.96L445.69,39.56c-2.28-8.8-7.95-16.33-15.78-20.95-7.83-4.62-17.16-5.94-25.96-3.68h0Z"/>
      <path class="cls-1" d="m381.19,153.49l-184.27,47.52c-2.06.53-4.24.22-6.07-.86-1.83-1.08-3.16-2.84-3.69-4.9-.53-2.06-.22-4.24.86-6.07,1.08-1.83,2.84-3.16,4.9-3.69l184.27-47.52c2.06-.53,4.24-.22,6.07.86,1.83,1.08,3.15,2.84,3.68,4.9.53,2.06.22,4.24-.86,6.07-1.08,1.83-2.84,3.16-4.9,3.69h0Z"/>
      <path class="cls-1" d="m419.96,171.42l-216.28,55.78c-2.06.53-4.24.22-6.07-.86-1.83-1.08-3.16-2.84-3.69-4.9-.53-2.06-.22-4.24.86-6.07,1.08-1.83,2.84-3.16,4.9-3.69l216.28-55.77c2.06-.53,4.24-.22,6.07.86,1.83,1.08,3.16,2.84,3.69,4.9s.22,4.24-.86,6.07c-1.08,1.83-2.84,3.16-4.9,3.69h0Z"/>
      <path class="cls-1" d="m411.46,270.86l-184.27,47.52c-1.02.26-2.08.32-3.12.17-1.04-.15-2.05-.5-2.95-1.03-.91-.53-1.7-1.24-2.33-2.08-.63-.84-1.09-1.8-1.36-2.82s-.32-2.08-.18-3.12c.15-1.04.5-2.04,1.03-2.95.53-.91,1.24-1.7,2.08-2.33.84-.63,1.8-1.09,2.82-1.36l184.27-47.52c1.02-.26,2.08-.32,3.12-.18s2.04.5,2.95,1.03c.91.54,1.7,1.24,2.33,2.08.63.84,1.09,1.8,1.36,2.82.26,1.02.32,2.08.17,3.12-.15,1.04-.5,2.05-1.03,2.95-.53.91-1.24,1.7-2.08,2.33-.84.63-1.8,1.09-2.82,1.36h0Z"/>
      <path class="cls-1" d="m450.23,288.79l-216.28,55.78c-1.02.26-2.08.32-3.12.17-1.04-.15-2.04-.5-2.95-1.03-.91-.54-1.7-1.24-2.33-2.08-.63-.84-1.09-1.8-1.36-2.82-.26-1.02-.32-2.08-.18-3.12.15-1.04.5-2.05,1.03-2.95.54-.91,1.24-1.7,2.08-2.33.84-.63,1.8-1.09,2.82-1.36l216.28-55.77c2.06-.53,4.24-.22,6.07.86,1.83,1.08,3.16,2.84,3.69,4.9.53,2.06.22,4.24-.86,6.07-1.08,1.83-2.84,3.16-4.9,3.69Z"/>
      <path class="cls-3" d="m441.73,388.23l-184.27,47.52c-2.06.53-4.24.22-6.07-.86-1.83-1.08-3.15-2.84-3.68-4.9-.53-2.06-.22-4.24.86-6.07,1.08-1.83,2.84-3.16,4.9-3.69l184.27-47.52c2.06-.53,4.24-.22,6.07.86,1.83,1.08,3.16,2.84,3.69,4.9.53,2.06.22,4.24-.86,6.07-1.08,1.83-2.84,3.16-4.9,3.69Z"/>
      <path class="cls-3" d="m480.5,406.17l-216.28,55.77c-1.02.26-2.08.33-3.12.18s-2.05-.5-2.95-1.03c-.91-.54-1.7-1.24-2.33-2.08s-1.1-1.8-1.36-2.82c-.26-1.02-.32-2.08-.17-3.12.15-1.04.5-2.05,1.03-2.95.54-.91,1.24-1.7,2.09-2.33.84-.63,1.8-1.09,2.82-1.35l216.28-55.78c2.06-.53,4.24-.22,6.07.86,1.83,1.08,3.16,2.84,3.69,4.9.53,2.06.22,4.24-.86,6.07-1.08,1.83-2.84,3.16-4.9,3.69h0Z"/>
      <path class="cls-1" d="m165.46,249.73l-65.21,16.82c-.99.25-2.03.1-2.91-.41-.88-.52-1.51-1.36-1.77-2.35l-14.97-58.05c-.25-.99-.1-2.03.41-2.91.52-.88,1.36-1.51,2.35-1.77l65.21-16.82c.99-.25,2.03-.1,2.91.41.88.52,1.51,1.36,1.77,2.35l14.97,58.05c.25.99.1,2.03-.41,2.91-.52.88-1.36,1.51-2.35,1.77h0Z"/>
      <path class="cls-1" d="m195.73,367.1l-65.21,16.82c-.99.25-2.03.11-2.91-.41-.88-.52-1.51-1.36-1.77-2.35l-14.97-58.05c-.25-.99-.11-2.03.41-2.91.52-.88,1.36-1.51,2.35-1.77l65.21-16.82c.99-.25,2.03-.1,2.91.41.88.52,1.51,1.36,1.77,2.35l14.97,58.05c.25.99.1,2.03-.41,2.91-.52.88-1.36,1.51-2.35,1.77h0Z"/>
      <path class="cls-1" d="m226,484.48l-65.21,16.82c-.99.25-2.03.1-2.91-.41-.88-.52-1.51-1.36-1.77-2.35l-14.97-58.05c-.25-.99-.1-2.03.41-2.91.52-.88,1.36-1.51,2.35-1.77l65.21-16.82c.99-.25,2.03-.11,2.91.41.88.52,1.51,1.36,1.77,2.35l14.97,58.05c.25.99.1,2.03-.41,2.91-.52.88-1.36,1.51-2.35,1.77h0Z"/>
      <path class="cls-1" d="m654.64,109.97h-376.32c-12.76.01-24.99,5.09-34.01,14.11-9.02,9.02-14.1,21.26-14.11,34.01v441.88c.01,12.76,5.09,24.99,14.11,34.01,9.02,9.02,21.25,14.1,34.01,14.11h376.32c12.76-.01,24.99-5.09,34.01-14.11,9.02-9.02,14.1-21.25,14.11-34.01V158.1c-.02-12.76-5.09-24.99-14.11-34.01-9.02-9.02-21.25-14.1-34.01-14.11h0Z"/>
      <path class="cls-2" d="m654.57,123.98h-376.32c-9.09.01-17.8,3.62-24.22,10.05-6.43,6.43-10.04,15.14-10.05,24.22v441.88c0,9.09,3.62,17.8,10.05,24.22,6.43,6.42,15.14,10.04,24.22,10.05h376.32c9.09-.01,17.8-3.62,24.22-10.05,6.42-6.43,10.04-15.14,10.05-24.22V158.25c-.01-9.09-3.62-17.8-10.05-24.22-6.42-6.42-15.14-10.04-24.22-10.05h0Z"/>
      <g>
        <path class="cls-1" d="m357.31,302.37v50.37h-11.18l-21.03-31.88v31.88h-4.91v-50.37h9.26l22.95,34.43v-34.43h4.91Z"/>
        <path class="cls-1" d="m386.31,301.49c14.66,0,21.99,8.68,21.99,26.05s-7.47,26.05-22.4,26.05-22.4-8.88-22.4-26.64,7.6-25.46,22.81-25.46Zm-.41,4.02c-2.76,0-4.62,1.52-5.59,4.56-.97,3.04-1.46,8.86-1.46,17.47s.49,14.43,1.46,17.47c.97,3.04,2.84,4.56,5.59,4.56s4.62-1.52,5.59-4.56c.97-3.04,1.46-8.86,1.46-17.47s-.49-14.4-1.46-17.45c-.97-3.05-2.84-4.58-5.59-4.58Z"/>
        <path class="cls-1" d="m450.12,302.37v5.06h-12.36v45.32h-15.5v-45.32h-12.44v-5.06h40.3Z"/>
        <path class="cls-1" d="m468.49,327.69v25.06h-14.61v-50.37h14.61v20.26h11.92v-20.26h14.61v50.37h-14.61v-25.06h-11.92Z"/>
        <path class="cls-1" d="m518.35,302.37v50.37h-14.61v-50.37h14.61Z"/>
        <path class="cls-1" d="m563.92,302.37v50.37h-11.18l-21.03-31.88v31.88h-4.91v-50.37h9.26l22.95,34.43v-34.43h4.91Z"/>
        <path class="cls-1" d="m592.04,325.55h20.74v27.2h-4.65l-1.59-3.47c-4.06,2.88-8.35,4.32-12.88,4.32-7.45,0-13.24-2.23-17.36-6.7-4.12-4.47-6.18-10.76-6.18-18.88s2.18-14.29,6.55-19.17c4.37-4.88,10.08-7.32,17.14-7.32,9.3,0,14.96,4.75,16.97,14.24l-6.86,3.14v-1.22l-.11-2.73c-.47-5.93-3.21-8.89-8.23-8.89-3.69,0-6.21,1.57-7.56,4.72-1.35,3.15-2.03,9.02-2.03,17.6,0,8.02.55,13.47,1.64,16.35,1.09,2.88,3.18,4.32,6.25,4.32,3.62,0,5.42-2.02,5.42-6.05v-12.4h-7.27v-5.06Z"/>
        <path class="cls-1" d="m395.78,418.38v25.06h-14.61v-50.37h14.61v20.26h11.92v-20.26h14.61v50.37h-14.61v-25.06h-11.92Z"/>
        <path class="cls-1" d="m463.6,393.06v5.06h-18.04v15.24h15.17v5.06h-15.17v19.96h21.11v5.06h-35.72v-50.37h32.66Z"/>
        <path class="cls-1" d="m471.24,443.43v-50.37h21.66c5.63,0,10.14,1.19,13.51,3.56,3.37,2.37,5.06,5.55,5.06,9.54,0,6.1-3.62,10.07-10.85,11.92,3.71,1.38,6.12,2.89,7.21,4.54,1.09,1.65,1.84,4.85,2.23,9.59.47,5.66,1.41,9.4,2.84,11.22h-15.87c-1.01-2.34-1.51-5.25-1.51-8.75l-.07-2.99-.07-3.76c0-5.81-2.34-8.71-7.01-8.71h-2.51v24.21h-14.61Zm14.61-28.38h2.95c5.54,0,8.3-2.89,8.3-8.67s-2.77-8.67-8.3-8.67h-2.95v17.34Z"/>
        <path class="cls-1" d="m551.61,393.06v5.06h-18.04v15.24h15.17v5.06h-15.17v19.96h21.11v5.06h-35.72v-50.37h32.66Z"/>
      </g>
    </g>
  </g>
</svg>