<svg width="254" height="356" viewBox="0 0 254 356" fill="none" xmlns="http://www.w3.org/2000/svg">
<path d="M239.445 355.826H14.5549V354.882C14.5549 346.837 8.42158 340.291 0.884691 340.291H0V15.535H0.884691C8.42158 15.535 14.5549 8.98871 14.5549 0.944269V0H239.445V0.944269C239.445 8.98871 245.578 15.535 253.115 15.535H254V340.291H253.115C245.578 340.291 239.445 346.837 239.445 354.882V355.826ZM16.2902 353.946H237.71C238.152 345.611 244.43 338.911 252.239 338.439V17.3873C244.43 16.9151 238.152 10.2144 237.71 1.87946H16.2902C15.8479 10.2144 9.56998 16.9151 1.76088 17.3873V338.439C9.56998 338.911 15.8479 345.611 16.2902 353.946Z" fill="#0E0C0C"/>
<path d="M235.022 350.651H18.9784L18.8934 350.288C17.2856 343.115 11.9094 337.368 5.18914 335.661L4.84888 335.57V20.2566L5.18914 20.1658C11.9094 18.4498 17.2941 12.7115 18.8934 5.53872L18.9784 5.17554H235.022L235.107 5.53872C236.715 12.7115 242.091 18.4589 248.811 20.1658L249.151 20.2566V335.57L248.811 335.661C242.091 337.377 236.706 343.115 235.107 350.288L235.022 350.651ZM19.6675 349.707H234.324C236.077 342.479 241.495 336.696 248.258 334.834V20.992C241.487 19.1217 236.068 13.338 234.324 6.11073H19.6675C17.9151 13.338 12.4964 19.1217 5.72506 20.992V334.834C12.4964 336.705 17.9151 342.488 19.6675 349.707Z" fill="#0E0C0C"/>
</svg>
