<?xml version="1.0" encoding="UTF-8"?>
<svg id="Layer_2" data-name="Layer 2" xmlns="http://www.w3.org/2000/svg" viewBox="0 0 1920 1080">
  <defs>
    <style>
      .cls-1 {
        fill: #6f0b20;
        fill-rule: evenodd;
      }
    </style>
  </defs>
  <g id="Layer_2-2" data-name="Layer 2">
    <g id="Layer_1-2" data-name="Layer 1-2">
      <path class="cls-1" d="m1364.01,199.72c97.99,0,177.35,60.14,177.35,134.3s-79.43,134.3-177.35,134.3-177.35-60.14-177.35-134.3h0c0-74.16,79.43-134.3,177.35-134.3Zm427.09,880.23H129.03c-34.24-.1-67.01-10.51-91.08-28.89h0C13.7,1032.82.06,1007.96,0,982.08V97.72c0-25.92,13.63-50.78,37.83-69.12h0C61.95,10.32,94.79,0,129.03,0h1662.07c34.18.05,66.95,10.42,91.08,28.75h0c24.19,18.34,37.83,43.2,37.83,69.12v884.26c0,25.87-13.63,50.69-37.83,68.97h0c-24.13,18.38-56.9,28.75-91.08,28.89v-.05Zm-114.88-111.6l-307.4-371.31c-20.8-25.01-64.39-32.49-97.41-16.75-8.96,4.27-16.51,9.98-22.14,16.75l-145.16,176.68,157.96,194.63h-64.83l-430.86-520.63c-39.68-40.13-103.3-37.05-138.76,0L205.7,968.36h-58.63V111.45h1625.21v856.91h-96.13.06Z"/>
    </g>
  </g>
</svg>