<?xml version="1.0" encoding="UTF-8"?>
<svg id="Layer_2" data-name="Layer 2" xmlns="http://www.w3.org/2000/svg" viewBox="0 0 30 22">
  <defs>
    <style>
      .cls-1 {
        fill: #f3cf7a;
      }
    </style>
  </defs>
  <g id="facebook">
    <g>
      <path class="cls-1" d="m15,22h0c-.31,0-7.59-.07-9.9-.3-.15-.03-.27-.04-.41-.06-.77-.1-2.07-.26-3.11-1.38-.96-1-1.27-3.14-1.28-3.24-.01-.11-.29-2.48-.29-4.9v-2.27c0-2.42.28-4.79.29-4.89.01-.1.32-2.24,1.29-3.25C2.7.51,3.94.39,4.61.32l.18-.02C8.84,0,14.93,0,14.99,0c.07,0,6.16,0,10.19.3l.2.02c.67.07,1.91.19,3.04,1.4.97,1.01,1.27,3.15,1.28,3.23.01.11.29,2.48.29,4.9v2.27c0,2.42-.28,4.79-.29,4.89-.01.1-.32,2.24-1.29,3.25-1.12,1.2-2.36,1.33-3.03,1.4l-.18.02c-4.05.3-10.15.31-10.21.31Zm0-21c-.07,0-6.13,0-10.12.3l-.17.02c-.57.06-1.54.15-2.4,1.09-.63.65-.95,2.16-1.02,2.69,0,.02-.29,2.41-.29,4.76v2.27c0,2.36.28,4.75.29,4.77.07.52.4,2.03,1.02,2.68.8.86,1.78.98,2.51,1.07.16.02.31.04.43.06,2.21.22,9.59.29,9.77.29.16,0,6.15-.01,10.11-.31l.17-.02c.58-.06,1.54-.15,2.4-1.09.63-.65.95-2.16,1.02-2.69,0-.02.28-2.41.28-4.76v-2.27c0-2.36-.28-4.75-.29-4.77-.07-.52-.4-2.03-1.02-2.68-.87-.94-1.83-1.04-2.41-1.09l-.2-.02c-3.97-.3-10.03-.3-10.09-.3Z"/>
      <path class="cls-1" d="m11.5,15c-.1,0-.19-.03-.27-.08-.14-.09-.23-.25-.23-.42v-5.97c0-.28.22-.5.5-.5s.5.22.5.5v5.2l7.27-3.23-7.97-3.54c-.25-.11-.37-.41-.25-.66s.41-.37.66-.25l9,4c.18.08.3.26.3.46s-.12.38-.3.46l-9,4c-.06.03-.13.04-.2.04Z"/>
    </g>
  </g>
</svg>